<svg xmlns="http://www.w3.org/2000/svg" xmlns:xlink="http://www.w3.org/1999/xlink" width="500" zoomAndPan="magnify" viewBox="0 0 375 374.999991" height="500" preserveAspectRatio="xMidYMid meet" version="1.0"><defs><g/><clipPath id="4264f56ff5"><path d="M 182 230 L 227.976562 230 L 227.976562 280.5 L 182 280.5 Z M 182 230 " clip-rule="nonzero"/></clipPath><clipPath id="38e0046893"><path d="M 204 88.300781 L 274.460938 88.300781 L 274.460938 210 L 204 210 Z M 204 88.300781 " clip-rule="nonzero"/></clipPath><clipPath id="f49b6a9dd7"><rect x="0" width="310" y="0" height="71"/></clipPath></defs><path fill="#050404" d="M 250.464844 153.726562 C 240.558594 151.964844 233.726562 160.484375 233.078125 170.589844 C 232.714844 176.238281 232.484375 176.210938 229.792969 179.757812 C 226.355469 184.289062 225 190.167969 228.445312 193.941406 C 229.949219 195.59375 231.089844 196.398438 231.371094 193.449219 C 231.871094 188.296875 229.003906 185.652344 233.195312 181.890625 C 235.761719 179.585938 242.386719 177.71875 243.996094 175.316406 C 246.277344 171.902344 245.449219 166.871094 249.140625 163.03125 C 253.578125 158.417969 260.917969 162.664062 263.617188 163.417969 C 264.808594 156.765625 255.96875 154.699219 250.464844 153.726562 " fill-opacity="1" fill-rule="evenodd"/><path fill="#050404" d="M 253.289062 165.800781 C 251.832031 165.457031 250.59375 165.609375 249.773438 167.429688 C 249.105469 168.90625 248.554688 170.574219 248.097656 172.421875 C 247.695312 174.050781 247.746094 175.175781 249.835938 175.238281 C 252.804688 175.328125 254.324219 175.664062 256.617188 176.011719 C 258.132812 176.242188 259.222656 176.265625 260.109375 174.890625 C 261.257812 173.101562 262.773438 170.503906 261.523438 169.242188 C 260.019531 167.71875 255.527344 166.324219 253.289062 165.800781 " fill-opacity="1" fill-rule="evenodd"/><path fill="#050404" d="M 258.878906 180.972656 C 256.363281 177.449219 247.949219 178.53125 245.851562 181.125 C 239.792969 188.609375 246.699219 194.515625 251.085938 203.207031 C 252.675781 206.367188 253.621094 209.671875 254.210938 213.113281 C 254.535156 215.011719 255.238281 213.929688 255.546875 212.902344 C 259.699219 199.148438 246.582031 192.875 247.863281 185.804688 C 248.179688 184.03125 250.394531 184.414062 250.425781 185.722656 C 250.449219 186.707031 250.542969 188.480469 253.429688 192.519531 C 255.78125 195.800781 255.902344 196.15625 257.535156 199.871094 C 257.828125 200.542969 258.53125 200.652344 259.160156 200.394531 C 265.1875 197.945312 263.886719 190.542969 261.011719 184.863281 C 260.246094 183.351562 259.640625 182.039062 258.878906 180.972656 " fill-opacity="1" fill-rule="evenodd"/><path fill="#050404" d="M 246.589844 229.738281 C 250.558594 220.746094 252.28125 211.535156 247.015625 202.429688 C 245.734375 200.214844 244.148438 197.5 242.265625 193.964844 C 239.386719 188.574219 239.992188 185.429688 241.386719 182.578125 C 242.171875 180.957031 241.5625 180.515625 239.984375 180.984375 C 236.097656 182.136719 234.054688 183.152344 233.984375 187.246094 C 233.945312 189.644531 234.507812 192.992188 234.171875 195.421875 C 233.65625 199.117188 229.914062 199.917969 227.589844 197.832031 C 226.800781 197.121094 226.070312 196.277344 225.5 195.476562 C 224.601562 194.21875 224.109375 194.175781 223.171875 195.402344 L 222.101562 196.808594 C 221.074219 198.15625 221.28125 200.460938 221.996094 201.910156 C 223.433594 204.816406 224.28125 206.5625 225.476562 211.410156 C 226.617188 216.007812 226.402344 219.582031 226.949219 223.351562 C 227.839844 229.445312 230.765625 234.742188 230.902344 241.324219 C 230.996094 246.027344 229.257812 250.535156 227.398438 254.785156 C 226.921875 255.863281 227.976562 255.15625 228.296875 254.9375 C 234.179688 251.015625 239.898438 242.835938 241.917969 236.457031 C 244.980469 226.777344 235.898438 220.5625 234.578125 215.21875 C 233.816406 212.148438 237 210.925781 238.175781 214.308594 C 238.660156 215.707031 239.34375 217.71875 241.261719 220.835938 C 242.808594 223.351562 244.503906 226.160156 245.246094 229.792969 C 245.582031 231.441406 246.082031 230.890625 246.589844 229.738281 " fill-opacity="1" fill-rule="evenodd"/><path fill="#050404" d="M 259.976562 216.976562 C 249.1875 219.609375 253.332031 225.046875 246.539062 236.761719 C 244.484375 240.308594 242.539062 244.414062 240.148438 247.535156 C 237.777344 250.625 234.960938 252.734375 231.914062 255.414062 C 224.144531 262.25 227.058594 268.375 230.210938 270.507812 C 230.890625 270.964844 231.011719 270.648438 231.292969 270.007812 C 237.921875 254.75 239.65625 262.222656 250.234375 256.300781 C 253.808594 254.300781 253.339844 252.980469 253.214844 247.933594 C 252.996094 239.453125 257.667969 236.546875 261.222656 232.53125 C 266.207031 226.90625 267.113281 225.574219 265.300781 218.65625 C 264.722656 216.453125 261.769531 216.539062 259.976562 216.976562 " fill-opacity="1" fill-rule="evenodd"/><path fill="#050404" d="M 258.753906 213.222656 C 258.574219 214.476562 258.945312 214.605469 260.140625 214.214844 C 269.035156 211.335938 268.179688 205.289062 265.875 201.773438 C 265.085938 200.566406 263.734375 200.398438 262.628906 201.324219 C 261.996094 201.855469 261.40625 202.285156 260.777344 202.839844 C 259.699219 203.796875 258.902344 205.367188 259.050781 206.8125 C 259.253906 208.738281 259.054688 211.230469 258.753906 213.222656 " fill-opacity="1" fill-rule="evenodd"/><g clip-path="url(#4264f56ff5)"><path fill="#050404" d="M 226.316406 247.617188 C 228.167969 242.855469 228.226562 237.703125 225.609375 231.765625 C 224.628906 229.527344 224.039062 230.316406 222.984375 232.046875 C 217.851562 240.457031 210.726562 245.664062 194.179688 250.589844 C 181.917969 254.238281 180.457031 267.21875 185.113281 275.136719 C 186.5625 277.609375 187.582031 278.507812 189.050781 279.519531 C 190.585938 280.578125 191.378906 281.273438 191.46875 279.03125 C 191.746094 272.265625 194.289062 268.507812 198.941406 265.542969 C 209.804688 258.617188 220.386719 262.859375 226.316406 247.617188 " fill-opacity="1" fill-rule="evenodd"/></g><path fill="#050404" d="M 212.101562 239.136719 C 215.335938 236.792969 218.238281 233.816406 221.355469 228.726562 C 225.804688 221.457031 223.363281 210.453125 219.714844 203.605469 C 218.183594 200.738281 214.976562 202.109375 213.296875 204.082031 C 210.867188 206.925781 209.625 208.980469 209.089844 210.628906 C 208.226562 213.273438 206.070312 214.382812 204.363281 211.847656 C 203.117188 210 202.308594 207.722656 201.742188 205.667969 C 200.75 202.097656 199.339844 203.164062 198.382812 205.992188 C 197.898438 207.425781 197.472656 208.992188 196.894531 210.648438 C 195.332031 215.113281 196.8125 218.300781 195.808594 222.964844 C 194.007812 231.304688 187.601562 231.660156 181.691406 235.425781 C 171.023438 242.230469 177.746094 251.289062 161.265625 254.21875 C 159.390625 254.554688 157.613281 254.847656 155.636719 255.148438 C 153.5 255.636719 149.371094 256.605469 154.0625 258.449219 C 156.875 259.558594 159.707031 260.660156 163.925781 260.863281 C 183.230469 261.78125 181.824219 253.128906 188.769531 249.542969 C 196.585938 245.507812 201.75 246.625 212.101562 239.136719 " fill-opacity="1" fill-rule="evenodd"/><path fill="#050404" d="M 207.972656 184.726562 C 221.597656 174.082031 214.519531 168.597656 213.4375 160.902344 C 213.023438 157.941406 213.71875 155.585938 214.503906 153.332031 C 215.257812 151.171875 215.265625 149.304688 213.613281 147.652344 C 211.605469 145.640625 209.332031 143.917969 207.292969 141.355469 C 207.09375 141.101562 206.898438 140.847656 206.703125 140.582031 C 205.945312 139.539062 205.328125 139.1875 204.773438 139.246094 C 203.894531 139.339844 203.171875 140.476562 202.273438 141.492188 C 201.042969 142.882812 199.539062 143.753906 196.625 145.691406 C 194.253906 147.273438 191.628906 148.902344 190.484375 150.714844 C 185.289062 158.96875 190.992188 166.878906 191.460938 173.871094 C 191.636719 178.027344 190.175781 181.1875 188.515625 184.316406 C 187.480469 186.269531 186.363281 188.207031 185.777344 190.5 C 184.136719 196.945312 188.929688 201.683594 188.617188 208.496094 C 188.511719 210.757812 188.042969 213.429688 187.394531 216.625 C 186.941406 218.839844 188.023438 219.042969 189.679688 217.457031 C 193.125 214.160156 194.371094 208.289062 196.375 203.113281 C 197.347656 200.609375 198.597656 198.882812 199.582031 196.566406 C 201.894531 191.085938 203.160156 188.488281 207.972656 184.726562 " fill-opacity="1" fill-rule="evenodd"/><path fill="#050404" d="M 200.585938 131.15625 C 203.742188 128.257812 203.09375 124.078125 203.574219 117.675781 C 204.761719 101.734375 220.167969 104.363281 205.800781 78.714844 C 204.660156 76.675781 203.710938 75.167969 202.976562 73.617188 C 201.667969 70.847656 201.394531 70.492188 198.09375 70.992188 C 195.589844 71.371094 192.976562 71.492188 192.988281 74.089844 L 193.003906 78.683594 C 193.015625 81.195312 193.476562 81.210938 195.191406 82.601562 C 198.21875 85.066406 196.332031 88.546875 193.4375 90.382812 C 191.238281 91.78125 190.683594 91.777344 190.402344 94.804688 C 190.039062 98.800781 189.082031 101.863281 188.285156 104.457031 C 186.351562 110.765625 187.8125 114.09375 191.699219 119.070312 C 193.976562 121.988281 197.136719 125.730469 197.980469 129.558594 C 198.332031 131.140625 198.242188 133.316406 200.585938 131.15625 " fill-opacity="1" fill-rule="evenodd"/><path fill="#050404" d="M 193.910156 133.539062 C 194.976562 129.035156 192.746094 123.851562 189.589844 120.664062 C 188.828125 119.894531 187.769531 119.714844 187.738281 121.070312 C 187.542969 128.457031 187.417969 133.699219 183.929688 139.621094 C 181.585938 143.601562 175.867188 147.980469 173.679688 152.3125 C 173.367188 152.9375 173.574219 153.296875 174.246094 153.011719 C 180.96875 150.160156 181.921875 151.738281 190.320312 145.847656 C 192.492188 144.320312 194.257812 143.40625 195.671875 142.570312 C 197.070312 141.746094 202.789062 136.722656 198.332031 137.242188 C 192.3125 137.941406 193.191406 136.589844 193.910156 133.539062 " fill-opacity="1" fill-rule="evenodd"/><path fill="#050404" d="M 179.050781 141.214844 C 186.949219 133.246094 184.664062 121.777344 184.042969 113.730469 C 183.605469 108.042969 186.417969 102.652344 187 97.960938 C 187.4375 94.460938 185.203125 94.085938 182.308594 94.492188 C 177.1875 95.210938 172.152344 96.335938 167.28125 98.011719 C 164.632812 98.925781 164.542969 100.347656 165.320312 102.9375 C 166.882812 108.15625 167.085938 113.46875 164.808594 117.867188 C 162.359375 122.601562 158.296875 124.894531 157.472656 130.570312 C 157.25 132.09375 157.957031 132.523438 158.578125 131.773438 C 162.28125 127.261719 166.933594 123.789062 170.472656 119.183594 C 174.59375 113.816406 173.632812 111.4375 174.046875 109.5625 C 174.417969 107.886719 176.257812 107.445312 177.011719 108.820312 C 178.644531 111.796875 176.882812 118.164062 172.996094 122.246094 C 160.738281 135.109375 156.195312 134.464844 159.484375 149.972656 C 160.386719 154.226562 162.378906 158.875 164.941406 161.574219 C 166.703125 163.433594 167.476562 163.996094 168.128906 161.125 C 168.941406 157.542969 167.636719 152.722656 179.050781 141.214844 " fill-opacity="1" fill-rule="evenodd"/><path fill="#050404" d="M 159.128906 120.679688 C 162.074219 116.175781 163.632812 114.0625 162.359375 106.507812 C 162.121094 105.125 161.796875 103.8125 161.347656 102.792969 C 160.28125 100.382812 159.46875 100.6875 157.414062 101.210938 L 154.878906 102.101562 C 153.675781 102.527344 153.085938 103.226562 153.257812 104.53125 C 154.644531 115.101562 158.019531 121.855469 146.019531 131.996094 C 143.03125 134.523438 125.148438 140.894531 128.3125 153.460938 C 129.449219 157.984375 133.578125 163.90625 137.875 166.367188 C 139.402344 167.246094 140.597656 166.792969 140.636719 164.984375 C 140.796875 156.886719 139.871094 154.46875 138.929688 152.542969 C 137.199219 149 140.328125 148.542969 141.609375 150.914062 C 142.242188 152.082031 142.570312 153.523438 142.863281 154.941406 C 144.71875 163.859375 143.140625 168.191406 141.320312 176.792969 C 139.382812 185.957031 143.066406 197.289062 149.644531 200.144531 C 151.109375 200.78125 151.53125 199.890625 151.15625 198.570312 C 149.636719 193.21875 146.539062 189.015625 153.988281 176.09375 C 160.359375 165.03125 156.734375 158.617188 155.007812 148.257812 C 154.015625 142.308594 153.191406 131.96875 155.371094 126.859375 C 156.269531 124.761719 157.597656 123.023438 159.128906 120.679688 " fill-opacity="1" fill-rule="evenodd"/><path fill="#050404" d="M 140.734375 131.621094 C 152.570312 126.59375 152.390625 117.179688 150.984375 107.976562 C 150.824219 106.953125 150.394531 105.699219 149.507812 105.253906 C 148.527344 104.761719 147.042969 105.15625 145.964844 105.550781 C 140.527344 107.550781 131.753906 111.214844 126.703125 113.621094 C 124.210938 114.8125 124.953125 116.90625 126.203125 118.988281 C 129.296875 124.152344 129.777344 130.394531 129.996094 135.683594 C 130.070312 137.539062 130.828125 137.429688 132.058594 136.203125 C 133.609375 134.660156 135.359375 132.300781 136.792969 129.710938 C 138.636719 126.375 139.265625 123.851562 139.71875 121.429688 C 140.136719 119.183594 142.265625 120.207031 142.433594 121.613281 C 142.804688 124.625 140.820312 128.269531 139.550781 130.796875 C 138.875 132.144531 139.515625 132.140625 140.734375 131.621094 " fill-opacity="1" fill-rule="evenodd"/><path fill="#050404" d="M 125.847656 110.667969 C 132.851562 108.105469 144.457031 102.675781 148.089844 101.402344 C 151.65625 100.15625 155.457031 98.96875 158.847656 97.710938 C 159.917969 97.316406 162.941406 95.113281 159.847656 94.648438 C 153.074219 93.628906 142.871094 91.71875 136.59375 87.839844 C 134.324219 86.4375 133.804688 85.089844 136.144531 83.347656 C 141.980469 79.007812 148.96875 76.371094 155.699219 75.003906 C 167.222656 72.652344 176.863281 73.765625 187.261719 78.171875 C 188.792969 78.820312 189.992188 79.109375 189.925781 77.101562 C 189.890625 76.128906 189.851562 75.105469 189.765625 73.835938 C 189.636719 71.777344 188.058594 71.539062 186.253906 71.371094 C 175.933594 70.386719 168.429688 69.34375 162.089844 66.441406 C 157.734375 64.449219 158.488281 61.304688 161.535156 59.460938 C 167.71875 55.726562 181.046875 52.398438 188.320312 51.660156 C 198.738281 50.59375 214.410156 50.863281 223.234375 56.28125 C 225.726562 57.8125 225.066406 59.625 223.519531 60.761719 C 222.007812 61.875 220.417969 62.804688 218.347656 63.730469 C 216.101562 64.738281 216.335938 67.269531 217.5 69.039062 C 219.804688 72.523438 223.503906 75.445312 226.105469 81.289062 C 234.507812 71.71875 222.089844 64.261719 233.054688 53.453125 C 235.804688 50.746094 239.914062 46.578125 246.0625 48.296875 C 251.019531 49.679688 252.296875 51.632812 254.136719 54.863281 C 255.007812 56.386719 256.1875 56.804688 257.878906 56.421875 C 260.066406 55.921875 261.097656 55.75 263.863281 55.933594 C 265.40625 56.035156 265.996094 55.246094 266.011719 53.804688 C 266.0625 49.09375 264.394531 45.9375 260.445312 43.363281 C 257.320312 41.332031 255.464844 41.351562 251.980469 42.382812 C 244.046875 44.734375 227.128906 49.773438 213.902344 46.324219 C 195.480469 41.515625 193.878906 38.132812 203.964844 33.714844 C 213.652344 29.46875 224.996094 27.019531 235.554688 27.429688 C 242.265625 27.691406 244.984375 26.769531 250.054688 22.546875 C 252.765625 20.289062 255.417969 18.851562 260.265625 16.3125 C 262.222656 15.289062 262.488281 13.96875 261.378906 12.0625 C 259.941406 9.609375 257.246094 7.578125 254.515625 6.421875 C 252.503906 5.570312 251.015625 6.015625 249.515625 7.507812 C 247.21875 9.789062 244.664062 12.238281 241.957031 14.476562 C 235.128906 20.105469 224.128906 25.046875 215.484375 25.542969 C 212.753906 25.699219 211.316406 24.640625 212.285156 21.820312 C 213.191406 19.1875 215.414062 16.96875 216.871094 15.324219 C 217.363281 14.777344 219.222656 13.109375 221.039062 11.5 C 221.96875 10.679688 224.125 8.320312 221.007812 9.0625 L 212.828125 11.007812 C 210.515625 11.558594 209.105469 12.789062 208.441406 15.03125 C 203.949219 30.203125 190.4375 43.332031 170.796875 48.074219 C 168.046875 48.738281 167.160156 48.457031 167.636719 45.210938 C 168.960938 36.1875 171.363281 29.449219 174.394531 23.78125 C 175.578125 21.570312 173.390625 21.277344 171.785156 21.699219 C 170.132812 22.132812 168.441406 22.726562 166.960938 23.359375 C 164.601562 24.367188 163.601562 26.277344 163.617188 28.792969 C 163.71875 45.066406 157.355469 60.949219 143.320312 69.769531 C 140.992188 71.230469 138.777344 71.335938 138.382812 68.226562 C 136.820312 55.816406 139.980469 47.363281 140.820312 40.976562 C 141.15625 38.460938 140.050781 37.679688 137.410156 38.363281 L 128.664062 41.339844 C 126.40625 42.105469 126.101562 43.246094 126.703125 45.308594 C 130.101562 56.96875 130.871094 79.488281 125.53125 89.214844 C 124.394531 91.28125 123.40625 91.574219 121.453125 90.171875 C 119.726562 88.9375 118.75 89.289062 117.703125 91.105469 C 116.023438 94.007812 114.113281 98.117188 114.308594 101.570312 C 114.488281 104.789062 116.507812 107.976562 118.476562 110.054688 C 120.46875 112.152344 123.441406 111.546875 125.847656 110.667969 " fill-opacity="1" fill-rule="evenodd"/><path fill="#050404" d="M 122.421875 118.671875 C 118.921875 114.789062 115.488281 111.933594 113.460938 107.9375 C 112.773438 106.585938 111.203125 106 109.421875 106.828125 C 107.144531 107.882812 104.683594 109.03125 103.050781 111.273438 C 100.523438 114.742188 101.441406 119.210938 106.152344 119.773438 C 108.632812 120.066406 111.589844 119.78125 113.769531 119.699219 C 115.324219 119.636719 116.605469 120.671875 115.183594 121.875 C 113.277344 123.488281 109.59375 122.207031 107.726562 126.066406 C 105.976562 129.675781 106.898438 131.578125 108.023438 133.394531 C 108.964844 134.917969 109.222656 135.371094 110.78125 134.410156 C 113.082031 132.988281 115.132812 131.578125 116.421875 131.007812 C 119.007812 129.867188 120 131.867188 118.449219 133.164062 C 116.863281 134.488281 113.878906 135.273438 108.71875 139.136719 C 106.730469 140.621094 103.058594 143.875 102.089844 147.324219 C 101.308594 150.128906 102.28125 150.777344 104.953125 149.585938 C 107.644531 148.386719 111.671875 146.445312 115.261719 145.09375 C 122.914062 142.222656 127.683594 139.578125 126.578125 130.546875 C 126.019531 125.976562 124.8125 121.320312 122.421875 118.671875 " fill-opacity="1" fill-rule="evenodd"/><path fill="#050404" d="M 142.15625 66.722656 C 163.089844 52.925781 161.550781 27.90625 158.726562 15.742188 C 158.476562 14.671875 158.003906 15.058594 157.304688 15.644531 C 145.878906 25.203125 140.429688 54.976562 140.789062 66.195312 C 140.820312 67.042969 141.441406 67.195312 142.15625 66.722656 " fill-opacity="1" fill-rule="evenodd"/><path fill="#050404" d="M 206.292969 0.996094 C 187.035156 6.039062 172.574219 25.207031 170.820312 44.914062 C 191.753906 39.171875 206.71875 24.5625 206.292969 0.996094 " fill-opacity="1" fill-rule="evenodd"/><path fill="#050404" d="M 191.855469 54.09375 C 187.554688 54.304688 172.070312 56.933594 166.308594 60.617188 C 164.339844 61.875 164.101562 63.328125 166.425781 64.3125 C 172.648438 66.945312 187.625 67.644531 191.683594 67.566406 C 202.3125 67.359375 213.402344 64.730469 218.679688 59.03125 C 214.757812 54.953125 199.609375 53.699219 191.855469 54.09375 " fill-opacity="1" fill-rule="evenodd"/><path fill="#050404" d="M 190.183594 83.007812 C 176.367188 74.351562 150.398438 74.4375 139.179688 85.53125 C 150.566406 93.304688 176.828125 95.535156 190.050781 87.539062 C 193.144531 85.667969 193.101562 84.835938 190.183594 83.007812 " fill-opacity="1" fill-rule="evenodd"/><path fill="#050404" d="M 123.523438 86.867188 C 128.078125 75.421875 129.167969 49.890625 118.886719 38.464844 C 113.488281 47.414062 116.152344 81.234375 123.523438 86.867188 " fill-opacity="1" fill-rule="evenodd"/><path fill="#050404" d="M 205.1875 71.738281 C 209.160156 82.617188 217.609375 85.757812 213.414062 102.308594 C 218.304688 101.042969 232.328125 89.898438 218.578125 75.234375 C 216.605469 73.128906 215.371094 71.320312 213.953125 68.515625 C 213.253906 67.128906 211.394531 66.75 209.984375 67.195312 L 206.644531 68.246094 C 204.796875 68.832031 204.53125 69.945312 205.1875 71.738281 " fill-opacity="1" fill-rule="evenodd"/><path fill="#050404" d="M 244.914062 74.460938 C 244.882812 76.933594 245.175781 79.8125 244.503906 82.316406 C 244.105469 83.804688 244.121094 85.253906 245.765625 85.539062 C 249.949219 86.265625 253.121094 86.910156 256.789062 88.335938 C 258.769531 89.109375 260.5 89.976562 262.472656 90.808594 C 263.652344 91.304688 264.671875 91.355469 264.277344 89.699219 C 263.871094 87.992188 263.207031 86.027344 262.367188 84.3125 C 261.460938 82.464844 259.664062 81.082031 257.800781 79.9375 C 252.945312 76.960938 252.402344 76.4375 248.269531 72.464844 C 246.644531 70.902344 244.949219 71.503906 244.914062 74.460938 " fill-opacity="1" fill-rule="evenodd"/><path fill="#050404" d="M 257.0625 62.316406 L 259.800781 72.769531 C 260.097656 73.894531 261.605469 74.757812 262.996094 72.851562 C 264.261719 71.117188 265.960938 69.8125 268.710938 69.460938 C 270.988281 69.171875 271.164062 68.015625 270.546875 66.144531 C 267.917969 58.234375 262.457031 58.921875 258.53125 59.804688 C 257.339844 60.070312 256.761719 61.164062 257.0625 62.316406 " fill-opacity="1" fill-rule="evenodd"/><path fill="#050404" d="M 255.496094 70.941406 C 254.324219 65.625 252.59375 57.449219 251.273438 55.375 C 247.46875 49.378906 241.164062 49.722656 236.410156 54.238281 C 231.527344 58.878906 230 61.503906 231.863281 70.414062 C 233.5 78.222656 229.21875 80.402344 228.054688 86.402344 C 227.878906 87.316406 228.566406 88.507812 229.5 88.363281 C 244.265625 86.054688 240.4375 79.289062 241.953125 72.144531 C 243.078125 66.832031 246.714844 66.074219 250.695312 69.386719 C 251.925781 70.414062 253.09375 71.640625 254.332031 72.71875 C 256.359375 74.484375 255.695312 71.847656 255.496094 70.941406 " fill-opacity="1" fill-rule="evenodd"/><path fill="#050404" d="M 201.832031 38.402344 C 210.324219 46.351562 242.992188 44.59375 250.296875 37.757812 C 238.335938 25.3125 211.820312 31.5625 201.832031 38.402344 " fill-opacity="1" fill-rule="evenodd"/><path fill="#050404" d="M 251.859375 33.753906 C 255.570312 35.855469 258.4375 37.449219 261.214844 39.429688 C 263.871094 41.328125 265.210938 40.757812 265.230469 37.585938 C 265.277344 31.75 265.527344 27.058594 267.097656 20.199219 C 267.753906 17.332031 265.074219 17.339844 263.085938 18.167969 C 258.363281 20.136719 253.503906 23.667969 250.109375 26.804688 C 247.386719 29.316406 249.132812 32.210938 251.859375 33.753906 " fill-opacity="1" fill-rule="evenodd"/><path fill="#050404" d="M 215.199219 22.535156 C 220.171875 23.089844 233.152344 17.269531 236.484375 14.953125 C 240.84375 11.921875 249.507812 5.167969 251.261719 -0.00390625 C 243.910156 0.339844 239.582031 2.136719 233.53125 5.84375 C 228.429688 8.96875 216.675781 17.96875 215.199219 22.535156 " fill-opacity="1" fill-rule="evenodd"/><path fill="#050404" d="M 271.757812 77.160156 C 271.203125 73.753906 266.835938 72.9375 265.96875 76.675781 C 265.128906 80.3125 266.898438 85.765625 267.988281 89.796875 C 268.148438 90.382812 268.617188 90.679688 268.929688 90.09375 C 270.695312 86.777344 272.4375 81.285156 271.757812 77.160156 " fill-opacity="1" fill-rule="evenodd"/><g clip-path="url(#38e0046893)"><path fill="#050404" d="M 247.152344 111.785156 C 240.539062 109.265625 233.351562 110.984375 229.328125 112.449219 C 228.019531 112.925781 226.183594 112.195312 227.398438 110.636719 C 230.507812 106.640625 241.804688 106.886719 246.957031 108.652344 C 256.761719 112.019531 262.464844 119.554688 266.117188 113.664062 C 268.128906 110.410156 266.964844 104.636719 266.375 100.777344 C 264.929688 91.367188 246.140625 86.4375 237.089844 89.777344 C 235.359375 90.414062 233.046875 90.671875 230.96875 91.074219 C 227.945312 91.667969 225.828125 93.546875 224.386719 96.210938 C 223.496094 97.859375 222.816406 99.257812 220.464844 101.453125 C 215.292969 106.28125 208.320312 106.160156 207.503906 117.023438 C 206.046875 136.449219 214.070312 143.15625 220.199219 147.753906 C 221.691406 148.875 226.332031 152.054688 226.773438 153.375 C 227.332031 155.042969 225.902344 156.617188 223.183594 155.195312 C 222.5 154.835938 221.785156 154.34375 221.050781 153.800781 C 219.8125 152.882812 218.761719 153.253906 218.214844 154.652344 C 214.5 164.105469 225.605469 171.460938 214.601562 182.605469 C 212.019531 185.222656 207.019531 189.105469 205.390625 193.351562 C 203.339844 198.691406 203.480469 204.894531 206.441406 209.300781 C 212.640625 197.980469 215.15625 200.003906 219 196.054688 C 221.925781 193.046875 223.953125 183.164062 227.460938 178.101562 C 231.359375 172.464844 229.675781 170.886719 230.828125 164.933594 C 231.667969 160.585938 233.339844 156.109375 235.996094 152.890625 C 238.25 150.167969 241.367188 148.460938 244.710938 147.371094 C 248.171875 146.246094 247.953125 144.238281 248.539062 141.355469 C 249.207031 138.070312 250.453125 135.460938 252.039062 133.960938 C 255.90625 130.308594 260.75 134.839844 257.183594 138.171875 C 253.578125 141.542969 250.402344 146.871094 256.679688 149.417969 C 261.546875 151.394531 268.6875 151.765625 272.4375 149.609375 C 275.277344 147.972656 274.554688 144.300781 273.671875 141.828125 C 272.703125 139.136719 271.425781 135.761719 270.6875 132.652344 C 269.464844 127.5 268.617188 125.671875 267.140625 122.804688 C 265.765625 120.144531 263.699219 119.753906 261.082031 119.105469 C 256.78125 118.054688 253.941406 114.371094 247.152344 111.785156 Z M 257.230469 120.671875 C 253.953125 123.132812 250.796875 118.757812 246.246094 116.886719 C 242.097656 115.1875 235.496094 115.792969 232.085938 118.734375 C 238.402344 130.570312 246.054688 124.953125 251.195312 123.527344 C 252.335938 123.214844 253.472656 123.773438 252.53125 125.128906 C 249.132812 130.046875 233.984375 131.84375 229.582031 119.777344 C 228.160156 120.300781 227.253906 120.617188 226.28125 120.335938 C 225.121094 119.992188 224.804688 118.917969 225.636719 118.226562 C 229.21875 115.230469 241.902344 110.246094 250.546875 115.566406 C 252.402344 116.707031 256.496094 119.1875 257.230469 120.671875 " fill-opacity="1" fill-rule="evenodd"/></g><g transform="matrix(1, 0, 0, 1, 38, 304)"><g clip-path="url(#f49b6a9dd7)"><g fill="#050404" fill-opacity="1"><g transform="translate(2.700784, 59.273488)"><g><path d="M 25.109375 0 C 25.535156 -1.601562 25.878906 -3.566406 26.140625 -5.890625 C 26.410156 -8.222656 26.546875 -10.75 26.546875 -13.46875 L 26.546875 -45.234375 L 12.59375 -45.234375 C 9.96875 -45.234375 7.835938 -45.125 6.203125 -44.90625 C 4.578125 -44.695312 3.070312 -44.351562 1.6875 -43.875 L 4.171875 -56.140625 L 61.359375 -56.140625 L 63.84375 -43.875 C 62.507812 -44.300781 61.007812 -44.632812 59.34375 -44.875 C 57.6875 -45.113281 55.550781 -45.234375 52.9375 -45.234375 L 39.0625 -45.234375 L 39.0625 -13.46875 C 39.0625 -10.75 39.179688 -8.222656 39.421875 -5.890625 C 39.660156 -3.566406 40.019531 -1.601562 40.5 0 Z M 25.109375 0 "/></g></g></g><g fill="#050404" fill-opacity="1"><g transform="translate(80.875731, 59.273488)"><g><path d="M 6.5 0 C 6.976562 -1.550781 7.335938 -3.503906 7.578125 -5.859375 C 7.816406 -8.210938 7.9375 -10.75 7.9375 -13.46875 L 7.9375 -42.671875 C 7.9375 -45.398438 7.800781 -47.9375 7.53125 -50.28125 C 7.269531 -52.632812 6.925781 -54.585938 6.5 -56.140625 L 21.890625 -56.140625 C 21.460938 -54.585938 21.113281 -52.632812 20.84375 -50.28125 C 20.582031 -47.9375 20.453125 -45.398438 20.453125 -42.671875 L 20.453125 -13.46875 C 20.453125 -10.75 20.582031 -8.210938 20.84375 -5.859375 C 21.113281 -3.503906 21.460938 -1.550781 21.890625 0 Z M 6.5 0 "/></g></g></g><g fill="#050404" fill-opacity="1"><g transform="translate(122.091207, 59.273488)"><g><path d="M 6.5 0 C 6.925781 -1.550781 7.269531 -3.503906 7.53125 -5.859375 C 7.800781 -8.210938 7.9375 -10.75 7.9375 -13.46875 L 7.9375 -42.671875 C 7.9375 -45.398438 7.816406 -47.9375 7.578125 -50.28125 C 7.335938 -52.632812 6.976562 -54.585938 6.5 -56.140625 L 23.265625 -56.140625 L 39.0625 -27.671875 C 40.34375 -25.367188 41.53125 -23.175781 42.625 -21.09375 C 43.71875 -19.007812 44.851562 -16.628906 46.03125 -13.953125 L 46.921875 -13.953125 C 48.097656 -16.578125 49.21875 -18.914062 50.28125 -20.96875 C 51.351562 -23.03125 52.554688 -25.265625 53.890625 -27.671875 L 69.78125 -56.140625 L 86.140625 -56.140625 C 85.660156 -54.585938 85.296875 -52.632812 85.046875 -50.28125 C 84.804688 -47.9375 84.6875 -45.398438 84.6875 -42.671875 L 84.6875 -13.46875 C 84.6875 -10.75 84.820312 -8.210938 85.09375 -5.859375 C 85.363281 -3.503906 85.710938 -1.550781 86.140625 0 L 70.734375 0 C 71.160156 -1.445312 71.507812 -3.410156 71.78125 -5.890625 C 72.050781 -8.378906 72.1875 -11.015625 72.1875 -13.796875 L 72.1875 -40.5 L 71.296875 -40.5 L 48.515625 0 L 43.875 0 L 21.09375 -40.5 L 20.453125 -40.5 L 20.453125 -13.796875 C 20.453125 -11.015625 20.597656 -8.378906 20.890625 -5.890625 C 21.179688 -3.410156 21.515625 -1.445312 21.890625 0 Z M 6.5 0 "/></g></g></g><g fill="#050404" fill-opacity="1"><g transform="translate(227.444629, 59.273488)"><g><path d="M 6.5 0 C 7.507812 -3.3125 8.015625 -7.800781 8.015625 -13.46875 L 8.015625 -42.671875 C 8.015625 -45.398438 7.867188 -47.9375 7.578125 -50.28125 C 7.285156 -52.632812 6.925781 -54.585938 6.5 -56.140625 L 61.4375 -56.140625 L 63.4375 -44.03125 C 62.53125 -44.457031 61.179688 -44.800781 59.390625 -45.0625 C 57.597656 -45.332031 55.3125 -45.46875 52.53125 -45.46875 L 20.453125 -45.46875 L 20.453125 -33.359375 L 46.28125 -33.359375 C 49.96875 -33.359375 52.773438 -33.519531 54.703125 -33.84375 L 54.703125 -22.453125 C 52.773438 -22.773438 49.96875 -22.9375 46.28125 -22.9375 L 20.453125 -22.9375 L 20.453125 -10.671875 L 53.09375 -10.671875 C 56.25 -10.671875 58.785156 -10.859375 60.703125 -11.234375 C 62.628906 -11.609375 64.179688 -12.113281 65.359375 -12.75 L 63.046875 0 Z M 6.5 0 "/></g></g></g></g></g></svg>