<svg xmlns="http://www.w3.org/2000/svg" viewBox="0 0 32 32" fill="none">
  <defs>
    <linearGradient id="faviconGradient" x1="0%" y1="0%" x2="100%" y2="100%">
      <stop offset="0%" stop-color="#F59E0B"/>
      <stop offset="100%" stop-color="#EA580C"/>
    </linearGradient>
  </defs>
  
  <!-- U-shape with sync curve -->
  <path d="M21.3884 24.8325C20.077 25.9921 18.5161 26.6667 16 26.6667C10.6667 26.6667 6.66667 24 6.66667 18.6667V5.33333" 
        stroke="url(#faviconGradient)" 
        stroke-width="3.2" 
        stroke-linecap="round" 
        fill="none"/>
  
  <!-- Calendar grid (2x2) -->
  <path d="M18.1333 6.66667H14.4C13.8109 6.66667 13.3333 7.14427 13.3333 7.73333V11.4667C13.3333 12.0557 13.8109 12.5333 14.4 12.5333H18.1333C18.7224 12.5333 19.2 12.0557 19.2 11.4667V7.73333C19.2 7.14427 18.7224 6.66667 18.1333 6.66667Z" fill="url(#faviconGradient)"/>
  <path d="M25.0667 6.66667H21.3333C20.7443 6.66667 20.2667 7.14427 20.2667 7.73333V11.4667C20.2667 12.0557 20.7443 12.5333 21.3333 12.5333H25.0667C25.6557 12.5333 26.1333 12.0557 26.1333 11.4667V7.73333C26.1333 7.14427 25.6557 6.66667 25.0667 6.66667Z" fill="url(#faviconGradient)"/>
  <path d="M18.1333 13.6H14.4C13.8109 13.6 13.3333 14.0776 13.3333 14.6667V18.4C13.3333 18.9891 13.8109 19.4667 14.4 19.4667H18.1333C18.7224 19.4667 19.2 18.9891 19.2 18.4V14.6667C19.2 14.0776 18.7224 13.6 18.1333 13.6Z" fill="url(#faviconGradient)"/>
  <path d="M25.0667 13.6H21.3333C20.7443 13.6 20.2667 14.0776 20.2667 14.6667V18.4C20.2667 18.9891 20.7443 19.4667 21.3333 19.4667H25.0667C25.6557 19.4667 26.1333 18.9891 26.1333 18.4V14.6667C26.1333 14.0776 25.6557 13.6 25.0667 13.6Z" fill="url(#faviconGradient)"/>
  
  <!-- Arrow cursor -->
  <path d="M22.6722 20.1983L18.1865 23.2868C17.7197 23.6082 17.9588 24.3396 18.5196 24.2532L21.3623 23.8141C21.5338 23.7856 21.7035 23.8559 21.8132 23.9994L23.3951 25.8951C23.7473 26.317 24.4303 25.9951 24.329 25.4549L23.4055 20.5391C23.3343 20.16 22.897 19.9795 22.6722 20.1983Z" fill="url(#faviconGradient)"/>
</svg>
