<svg xmlns="http://www.w3.org/2000/svg" xmlns:xlink="http://www.w3.org/1999/xlink" width="500" zoomAndPan="magnify" viewBox="0 0 375 374.999991" height="500" preserveAspectRatio="xMidYMid meet" version="1.0"><defs><clipPath id="bed3cf8f70"><path d="M 187.5 0 C 83.945312 0 0 83.945312 0 187.5 C 0 291.054688 83.945312 375 187.5 375 C 291.054688 375 375 291.054688 375 187.5 C 375 83.945312 291.054688 0 187.5 0 Z M 187.5 0 " clip-rule="nonzero"/></clipPath><clipPath id="7799d691a0"><path d="M 0 0 L 375 0 L 375 375 L 0 375 Z M 0 0 " clip-rule="nonzero"/></clipPath><clipPath id="ceeffeac5d"><path d="M 187.5 0 C 83.945312 0 0 83.945312 0 187.5 C 0 291.054688 83.945312 375 187.5 375 C 291.054688 375 375 291.054688 375 187.5 C 375 83.945312 291.054688 0 187.5 0 Z M 187.5 0 " clip-rule="nonzero"/></clipPath><clipPath id="92ba956c3c"><rect x="0" width="375" y="0" height="375"/></clipPath><clipPath id="4a5e445388"><path d="M 175 285.210938 L 224.558594 285.210938 L 224.558594 339.746094 L 175 339.746094 Z M 175 285.210938 " clip-rule="nonzero"/></clipPath><clipPath id="97bf5dcd5e"><path d="M 210 37.5 L 250 37.5 L 250 62 L 210 62 Z M 210 37.5 " clip-rule="nonzero"/></clipPath><clipPath id="c0f064435e"><path d="M 198 133 L 274.464844 133 L 274.464844 263.785156 L 198 263.785156 Z M 198 133 " clip-rule="nonzero"/></clipPath></defs><g clip-path="url(#bed3cf8f70)"><g transform="matrix(1, 0, 0, 1, 0, 0)"><g clip-path="url(#92ba956c3c)"><g clip-path="url(#7799d691a0)"><g clip-path="url(#ceeffeac5d)"><rect x="-82.5" width="540" fill="#050404" height="539.999987" y="-82.499998" fill-opacity="1"/></g></g></g></g></g><path fill="#ffffff" d="M 248.824219 203.132812 C 238.132812 201.238281 230.761719 210.414062 230.066406 221.300781 C 229.671875 227.390625 229.421875 227.359375 226.519531 231.179688 C 222.808594 236.066406 221.347656 242.394531 225.0625 246.464844 C 226.6875 248.246094 227.917969 249.109375 228.222656 245.933594 C 228.757812 240.378906 225.667969 237.53125 230.1875 233.480469 C 232.960938 230.996094 240.109375 228.984375 241.84375 226.394531 C 244.304688 222.71875 243.410156 217.292969 247.394531 213.160156 C 252.1875 208.1875 260.105469 212.765625 263.019531 213.574219 C 264.304688 206.40625 254.765625 204.183594 248.824219 203.132812 " fill-opacity="1" fill-rule="evenodd"/><path fill="#ffffff" d="M 251.871094 216.144531 C 250.300781 215.773438 248.964844 215.9375 248.078125 217.898438 C 247.359375 219.492188 246.761719 221.285156 246.269531 223.277344 C 245.835938 225.03125 245.890625 226.246094 248.148438 226.3125 C 251.347656 226.410156 252.988281 226.769531 255.464844 227.144531 C 257.097656 227.394531 258.277344 227.417969 259.230469 225.9375 C 260.46875 224.007812 262.105469 221.207031 260.757812 219.847656 C 259.132812 218.207031 254.285156 216.707031 251.871094 216.144531 " fill-opacity="1" fill-rule="evenodd"/><path fill="#ffffff" d="M 257.90625 232.488281 C 255.191406 228.691406 246.109375 229.859375 243.847656 232.652344 C 237.308594 240.71875 244.761719 247.082031 249.496094 256.445312 C 251.210938 259.851562 252.230469 263.414062 252.867188 267.121094 C 253.21875 269.164062 253.972656 268 254.308594 266.890625 C 258.789062 252.074219 244.636719 245.316406 246.015625 237.695312 C 246.359375 235.785156 248.746094 236.199219 248.78125 237.609375 C 248.808594 238.667969 248.910156 240.578125 252.027344 244.929688 C 254.558594 248.464844 254.695312 248.851562 256.457031 252.851562 C 256.769531 253.574219 257.53125 253.695312 258.210938 253.417969 C 264.710938 250.777344 263.308594 242.800781 260.207031 236.679688 C 259.378906 235.054688 258.726562 233.636719 257.90625 232.488281 " fill-opacity="1" fill-rule="evenodd"/><path fill="#ffffff" d="M 244.644531 285.03125 C 248.925781 275.34375 250.785156 265.417969 245.101562 255.609375 C 243.71875 253.222656 242.007812 250.296875 239.976562 246.492188 C 236.871094 240.683594 237.523438 237.292969 239.027344 234.21875 C 239.878906 232.476562 239.21875 231.996094 237.515625 232.503906 C 233.324219 233.746094 231.117188 234.839844 231.042969 239.25 C 231 241.832031 231.609375 245.441406 231.242188 248.058594 C 230.6875 252.042969 226.648438 252.902344 224.140625 250.65625 C 223.289062 249.890625 222.5 248.976562 221.886719 248.117188 C 220.917969 246.761719 220.386719 246.714844 219.375 248.039062 L 218.21875 249.554688 C 217.109375 251.003906 217.335938 253.488281 218.105469 255.046875 C 219.65625 258.183594 220.570312 260.0625 221.863281 265.285156 C 223.089844 270.238281 222.859375 274.089844 223.453125 278.152344 C 224.410156 284.71875 227.566406 290.425781 227.714844 297.515625 C 227.816406 302.582031 225.941406 307.441406 223.933594 312.019531 C 223.421875 313.183594 224.558594 312.421875 224.90625 312.1875 C 231.253906 307.960938 237.425781 299.144531 239.601562 292.273438 C 242.90625 281.84375 233.109375 275.144531 231.683594 269.390625 C 230.863281 266.082031 234.292969 264.765625 235.5625 268.40625 C 236.085938 269.914062 236.824219 272.082031 238.894531 275.441406 C 240.5625 278.152344 242.394531 281.179688 243.191406 285.09375 C 243.558594 286.867188 244.09375 286.273438 244.644531 285.03125 " fill-opacity="1" fill-rule="evenodd"/><path fill="#ffffff" d="M 259.089844 271.285156 C 247.445312 274.121094 251.917969 279.980469 244.589844 292.597656 C 242.371094 296.421875 240.273438 300.84375 237.691406 304.207031 C 235.132812 307.539062 232.09375 309.8125 228.804688 312.699219 C 220.425781 320.0625 223.570312 326.664062 226.972656 328.960938 C 227.699219 329.453125 227.835938 329.109375 228.136719 328.421875 C 235.292969 311.980469 237.164062 320.035156 248.578125 313.652344 C 252.433594 311.5 251.929688 310.078125 251.792969 304.640625 C 251.558594 295.5 256.597656 292.371094 260.433594 288.042969 C 265.808594 281.980469 266.789062 280.546875 264.832031 273.09375 C 264.210938 270.71875 261.023438 270.8125 259.089844 271.285156 " fill-opacity="1" fill-rule="evenodd"/><path fill="#ffffff" d="M 257.769531 267.238281 C 257.574219 268.589844 257.976562 268.726562 259.265625 268.308594 C 268.863281 265.203125 267.9375 258.691406 265.453125 254.902344 C 264.601562 253.601562 263.144531 253.421875 261.949219 254.417969 C 261.269531 254.992188 260.628906 255.453125 259.953125 256.054688 C 258.789062 257.082031 257.929688 258.773438 258.089844 260.332031 C 258.308594 262.40625 258.09375 265.09375 257.769531 267.238281 " fill-opacity="1" fill-rule="evenodd"/><g clip-path="url(#4a5e445388)"><path fill="#ffffff" d="M 222.765625 304.296875 C 224.765625 299.164062 224.828125 293.617188 222.003906 287.21875 C 220.949219 284.808594 220.308594 285.65625 219.167969 287.519531 C 213.632812 296.582031 205.945312 302.191406 188.089844 307.5 C 174.855469 311.433594 173.28125 325.417969 178.304688 333.949219 C 179.867188 336.609375 180.96875 337.582031 182.554688 338.667969 C 184.210938 339.8125 185.066406 340.5625 185.164062 338.144531 C 185.464844 330.855469 188.207031 326.804688 193.226562 323.609375 C 204.949219 316.148438 216.367188 320.71875 222.765625 304.296875 " fill-opacity="1" fill-rule="evenodd"/></g><path fill="#ffffff" d="M 207.425781 295.160156 C 210.917969 292.636719 214.050781 289.429688 217.410156 283.945312 C 222.214844 276.113281 219.582031 264.253906 215.644531 256.875 C 213.992188 253.785156 210.53125 255.261719 208.714844 257.390625 C 206.09375 260.453125 204.753906 262.667969 204.175781 264.445312 C 203.246094 267.292969 200.921875 268.488281 199.078125 265.757812 C 197.734375 263.765625 196.859375 261.3125 196.246094 259.101562 C 195.179688 255.25 193.65625 256.402344 192.625 259.449219 C 192.101562 260.992188 191.640625 262.679688 191.019531 264.464844 C 189.332031 269.273438 190.929688 272.710938 189.847656 277.734375 C 187.902344 286.71875 180.988281 287.105469 174.617188 291.160156 C 163.101562 298.496094 170.355469 308.253906 152.574219 311.410156 C 150.546875 311.769531 148.632812 312.085938 146.5 312.410156 C 144.195312 312.9375 139.738281 313.980469 144.800781 315.96875 C 147.835938 317.164062 150.894531 318.351562 155.445312 318.566406 C 176.273438 319.558594 174.757812 310.234375 182.253906 306.371094 C 190.6875 302.023438 196.257812 303.230469 207.425781 295.160156 " fill-opacity="1" fill-rule="evenodd"/><path fill="#ffffff" d="M 202.972656 236.535156 C 217.675781 225.066406 210.039062 219.15625 208.871094 210.867188 C 208.421875 207.675781 209.175781 205.136719 210.023438 202.710938 C 210.835938 200.382812 210.84375 198.367188 209.0625 196.589844 C 206.890625 194.421875 204.441406 192.566406 202.238281 189.800781 C 202.023438 189.53125 201.8125 189.257812 201.605469 188.972656 C 200.785156 187.847656 200.117188 187.46875 199.523438 187.53125 C 198.570312 187.632812 197.792969 188.859375 196.824219 189.949219 C 195.496094 191.449219 193.871094 192.386719 190.730469 194.476562 C 188.167969 196.179688 185.335938 197.933594 184.105469 199.886719 C 178.496094 208.78125 184.648438 217.304688 185.15625 224.839844 C 185.347656 229.316406 183.769531 232.722656 181.976562 236.089844 C 180.859375 238.199219 179.65625 240.285156 179.023438 242.757812 C 177.253906 249.699219 182.421875 254.804688 182.089844 262.148438 C 181.972656 264.582031 181.46875 267.460938 180.765625 270.90625 C 180.277344 273.289062 181.445312 273.511719 183.234375 271.800781 C 186.953125 268.246094 188.296875 261.921875 190.457031 256.34375 C 191.507812 253.648438 192.855469 251.789062 193.917969 249.289062 C 196.414062 243.386719 197.78125 240.589844 202.972656 236.535156 " fill-opacity="1" fill-rule="evenodd"/><path fill="#ffffff" d="M 195.003906 178.816406 C 198.40625 175.691406 197.707031 171.191406 198.226562 164.289062 C 199.507812 147.113281 216.132812 149.945312 200.628906 122.3125 C 199.398438 120.117188 198.375 118.488281 197.582031 116.820312 C 196.171875 113.835938 195.875 113.449219 192.3125 113.988281 C 189.613281 114.398438 186.789062 114.527344 186.800781 117.328125 L 186.824219 122.28125 C 186.832031 124.984375 187.332031 125 189.179688 126.5 C 192.449219 129.152344 190.410156 132.902344 187.289062 134.882812 C 184.914062 136.390625 184.316406 136.386719 184.011719 139.648438 C 183.621094 143.953125 182.585938 147.253906 181.730469 150.046875 C 179.644531 156.847656 181.21875 160.433594 185.414062 165.792969 C 187.871094 168.9375 191.277344 172.972656 192.191406 177.09375 C 192.570312 178.796875 192.472656 181.140625 195.003906 178.816406 " fill-opacity="1" fill-rule="evenodd"/><path fill="#ffffff" d="M 187.800781 181.382812 C 188.949219 176.53125 186.542969 170.945312 183.136719 167.511719 C 182.316406 166.679688 181.175781 166.484375 181.136719 167.949219 C 180.925781 175.90625 180.792969 181.554688 177.03125 187.9375 C 174.5 192.222656 168.332031 196.945312 165.96875 201.613281 C 165.632812 202.285156 165.851562 202.667969 166.578125 202.363281 C 173.835938 199.292969 174.863281 200.992188 183.921875 194.644531 C 186.265625 193 188.171875 192.011719 189.699219 191.113281 C 191.207031 190.222656 197.378906 184.8125 192.570312 185.371094 C 186.074219 186.125 187.023438 184.667969 187.800781 181.382812 " fill-opacity="1" fill-rule="evenodd"/><path fill="#ffffff" d="M 171.761719 189.652344 C 180.285156 181.066406 177.820312 168.707031 177.148438 160.039062 C 176.679688 153.914062 179.714844 148.105469 180.34375 143.046875 C 180.8125 139.277344 178.402344 138.875 175.277344 139.3125 C 169.753906 140.085938 164.320312 141.296875 159.0625 143.105469 C 156.207031 144.089844 156.109375 145.621094 156.945312 148.410156 C 158.632812 154.035156 158.851562 159.757812 156.398438 164.496094 C 153.753906 169.597656 149.371094 172.066406 148.480469 178.183594 C 148.242188 179.824219 149.003906 180.285156 149.671875 179.480469 C 153.667969 174.617188 158.6875 170.878906 162.507812 165.914062 C 166.953125 160.132812 165.917969 157.570312 166.367188 155.546875 C 166.765625 153.742188 168.753906 153.265625 169.566406 154.75 C 171.324219 157.957031 169.425781 164.816406 165.230469 169.214844 C 152.003906 183.074219 147.101562 182.378906 150.652344 199.085938 C 151.625 203.671875 153.773438 208.679688 156.539062 211.589844 C 158.441406 213.589844 159.277344 214.199219 159.980469 211.105469 C 160.859375 207.246094 159.449219 202.054688 171.761719 189.652344 " fill-opacity="1" fill-rule="evenodd"/><path fill="#ffffff" d="M 150.265625 167.527344 C 153.445312 162.675781 155.128906 160.394531 153.753906 152.257812 C 153.5 150.765625 153.148438 149.351562 152.660156 148.253906 C 151.507812 145.65625 150.636719 145.988281 148.414062 146.550781 L 145.679688 147.507812 C 144.382812 147.96875 143.75 148.722656 143.933594 150.125 C 145.429688 161.515625 149.070312 168.792969 136.121094 179.722656 C 132.898438 182.441406 113.601562 189.308594 117.011719 202.847656 C 118.242188 207.722656 122.695312 214.101562 127.332031 216.753906 C 128.984375 217.699219 130.273438 217.214844 130.3125 215.265625 C 130.484375 206.535156 129.488281 203.933594 128.46875 201.859375 C 126.601562 198.039062 129.980469 197.546875 131.363281 200.101562 C 132.046875 201.363281 132.398438 202.914062 132.714844 204.441406 C 134.71875 214.050781 133.015625 218.71875 131.050781 227.984375 C 128.960938 237.863281 132.9375 250.070312 140.035156 253.148438 C 141.617188 253.832031 142.066406 252.871094 141.664062 251.449219 C 140.023438 245.683594 136.679688 241.15625 144.71875 227.230469 C 151.597656 215.316406 147.683594 208.40625 145.820312 197.242188 C 144.75 190.832031 143.863281 179.691406 146.210938 174.1875 C 147.179688 171.925781 148.613281 170.050781 150.265625 167.527344 " fill-opacity="1" fill-rule="evenodd"/><path fill="#ffffff" d="M 130.417969 179.316406 C 143.1875 173.898438 142.996094 163.757812 141.476562 153.839844 C 141.308594 152.738281 140.84375 151.386719 139.882812 150.90625 C 138.828125 150.378906 137.226562 150.800781 136.0625 151.226562 C 130.195312 153.382812 120.730469 157.328125 115.277344 159.921875 C 112.585938 161.207031 113.390625 163.460938 114.738281 165.707031 C 118.078125 171.265625 118.59375 177.992188 118.832031 183.691406 C 118.910156 185.695312 119.726562 185.574219 121.058594 184.25 C 122.726562 182.589844 124.621094 180.050781 126.167969 177.257812 C 128.15625 173.664062 128.835938 170.945312 129.320312 168.332031 C 129.773438 165.917969 132.070312 167.019531 132.253906 168.53125 C 132.652344 171.777344 130.511719 175.707031 129.144531 178.429688 C 128.414062 179.878906 129.101562 179.875 130.417969 179.316406 " fill-opacity="1" fill-rule="evenodd"/><path fill="#ffffff" d="M 114.355469 156.738281 C 121.910156 153.976562 134.4375 148.128906 138.355469 146.757812 C 142.203125 145.414062 146.304688 144.132812 149.964844 142.78125 C 151.117188 142.355469 154.382812 139.980469 151.042969 139.480469 C 143.734375 138.382812 132.726562 136.320312 125.949219 132.144531 C 123.5 130.632812 122.9375 129.179688 125.46875 127.300781 C 131.765625 122.628906 139.304688 119.789062 146.566406 118.3125 C 159.003906 115.78125 169.40625 116.980469 180.625 121.726562 C 182.277344 122.425781 183.570312 122.734375 183.496094 120.574219 C 183.460938 119.523438 183.417969 118.421875 183.328125 117.054688 C 183.1875 114.835938 181.484375 114.582031 179.539062 114.398438 C 168.402344 113.339844 160.300781 112.214844 153.460938 109.085938 C 148.765625 106.941406 149.578125 103.554688 152.867188 101.566406 C 159.539062 97.542969 173.917969 93.957031 181.765625 93.160156 C 193.011719 92.011719 209.917969 92.304688 219.441406 98.140625 C 222.128906 99.789062 221.417969 101.742188 219.75 102.96875 C 218.117188 104.164062 216.402344 105.171875 214.167969 106.167969 C 211.742188 107.253906 211.996094 109.980469 213.253906 111.886719 C 215.742188 115.640625 219.730469 118.789062 222.539062 125.085938 C 231.605469 114.773438 218.207031 106.742188 230.039062 95.09375 C 233.003906 92.175781 237.441406 87.6875 244.074219 89.539062 C 249.425781 91.027344 250.800781 93.132812 252.789062 96.613281 C 253.726562 98.253906 255 98.703125 256.824219 98.292969 C 259.1875 97.753906 260.300781 97.570312 263.28125 97.765625 C 264.945312 97.875 265.585938 97.023438 265.601562 95.472656 C 265.65625 90.394531 263.855469 86.996094 259.597656 84.222656 C 256.222656 82.035156 254.222656 82.054688 250.460938 83.164062 C 241.902344 85.699219 223.644531 91.128906 209.371094 87.410156 C 189.496094 82.230469 187.765625 78.585938 198.648438 73.824219 C 209.101562 69.25 221.34375 66.613281 232.738281 67.054688 C 239.980469 67.335938 242.910156 66.34375 248.382812 61.792969 C 251.308594 59.359375 254.167969 57.808594 259.402344 55.078125 C 261.515625 53.972656 261.800781 52.550781 260.601562 50.496094 C 259.050781 47.851562 256.144531 45.667969 253.199219 44.421875 C 251.023438 43.503906 249.421875 43.980469 247.800781 45.589844 C 245.324219 48.046875 242.566406 50.683594 239.644531 53.097656 C 232.273438 59.164062 220.40625 64.488281 211.078125 65.023438 C 208.128906 65.191406 206.582031 64.050781 207.628906 61.011719 C 208.601562 58.175781 211.003906 55.785156 212.578125 54.011719 C 213.105469 53.421875 215.113281 51.625 217.074219 49.890625 C 218.074219 49.007812 220.402344 46.464844 217.035156 47.261719 L 208.210938 49.359375 C 205.714844 49.953125 204.195312 51.28125 203.480469 53.695312 C 198.632812 70.042969 184.050781 84.1875 162.855469 89.300781 C 159.890625 90.011719 158.933594 89.710938 159.449219 86.210938 C 160.878906 76.488281 163.46875 69.230469 166.742188 63.125 C 168.015625 60.742188 165.65625 60.425781 163.925781 60.878906 C 162.140625 61.347656 160.316406 61.988281 158.71875 62.667969 C 156.171875 63.757812 155.09375 65.8125 155.109375 68.523438 C 155.21875 86.054688 148.355469 103.171875 133.207031 112.671875 C 130.695312 114.246094 128.304688 114.359375 127.882812 111.007812 C 126.195312 97.640625 129.605469 88.53125 130.511719 81.648438 C 130.875 78.941406 129.679688 78.101562 126.832031 78.835938 L 117.394531 82.039062 C 114.957031 82.867188 114.628906 84.097656 115.277344 86.320312 C 118.945312 98.882812 119.773438 123.144531 114.011719 133.625 C 112.789062 135.851562 111.71875 136.167969 109.613281 134.65625 C 107.75 133.324219 106.695312 133.707031 105.566406 135.664062 C 103.753906 138.789062 101.691406 143.214844 101.902344 146.9375 C 102.097656 150.40625 104.277344 153.839844 106.398438 156.078125 C 108.546875 158.339844 111.757812 157.6875 114.355469 156.738281 " fill-opacity="1" fill-rule="evenodd"/><path fill="#ffffff" d="M 110.65625 165.363281 C 106.882812 161.183594 103.175781 158.101562 100.988281 153.800781 C 100.25 152.34375 98.550781 151.710938 96.628906 152.601562 C 94.175781 153.738281 91.515625 154.976562 89.753906 157.390625 C 87.027344 161.128906 88.019531 165.945312 93.105469 166.550781 C 95.777344 166.867188 98.96875 166.558594 101.320312 166.46875 C 103 166.402344 104.382812 167.515625 102.847656 168.816406 C 100.789062 170.554688 96.816406 169.175781 94.800781 173.332031 C 92.914062 177.21875 93.90625 179.269531 95.121094 181.226562 C 96.136719 182.867188 96.414062 183.355469 98.097656 182.320312 C 100.578125 180.789062 102.792969 179.269531 104.183594 178.65625 C 106.976562 177.425781 108.046875 179.582031 106.371094 180.976562 C 104.660156 182.40625 101.441406 183.25 95.871094 187.410156 C 93.726562 189.011719 89.761719 192.519531 88.722656 196.234375 C 87.875 199.257812 88.925781 199.957031 91.808594 198.671875 C 94.710938 197.378906 99.058594 195.285156 102.933594 193.832031 C 111.191406 190.738281 116.335938 187.890625 115.144531 178.15625 C 114.542969 173.234375 113.238281 168.214844 110.65625 165.363281 " fill-opacity="1" fill-rule="evenodd"/><path fill="#ffffff" d="M 131.953125 109.390625 C 154.542969 94.527344 152.878906 67.566406 149.832031 54.460938 C 149.5625 53.308594 149.050781 53.726562 148.296875 54.355469 C 135.96875 64.652344 130.089844 96.734375 130.480469 108.824219 C 130.507812 109.734375 131.183594 109.898438 131.953125 109.390625 " fill-opacity="1" fill-rule="evenodd"/><path fill="#ffffff" d="M 201.160156 38.570312 C 180.378906 44.003906 164.773438 64.660156 162.882812 85.894531 C 185.472656 79.703125 201.621094 63.964844 201.160156 38.570312 " fill-opacity="1" fill-rule="evenodd"/><path fill="#ffffff" d="M 185.582031 95.78125 C 180.941406 96.011719 164.234375 98.84375 158.015625 102.8125 C 155.890625 104.167969 155.632812 105.734375 158.140625 106.792969 C 164.855469 109.628906 181.015625 110.382812 185.394531 110.300781 C 196.863281 110.074219 208.832031 107.242188 214.527344 101.105469 C 210.292969 96.710938 193.949219 95.355469 185.582031 95.78125 " fill-opacity="1" fill-rule="evenodd"/><path fill="#ffffff" d="M 183.777344 126.9375 C 168.871094 117.609375 140.84375 117.703125 128.742188 129.65625 C 141.03125 138.03125 169.367188 140.433594 183.636719 131.820312 C 186.972656 129.804688 186.925781 128.90625 183.777344 126.9375 " fill-opacity="1" fill-rule="evenodd"/><path fill="#ffffff" d="M 111.847656 131.09375 C 116.761719 118.765625 117.9375 91.253906 106.84375 78.945312 C 101.019531 88.585938 103.890625 125.027344 111.847656 131.09375 " fill-opacity="1" fill-rule="evenodd"/><path fill="#ffffff" d="M 199.96875 114.796875 C 204.253906 126.515625 213.371094 129.898438 208.84375 147.734375 C 214.125 146.371094 229.253906 134.359375 214.414062 118.558594 C 212.289062 116.292969 210.957031 114.34375 209.425781 111.320312 C 208.671875 109.828125 206.667969 109.417969 205.144531 109.902344 L 201.542969 111.03125 C 199.546875 111.664062 199.261719 112.863281 199.96875 114.796875 " fill-opacity="1" fill-rule="evenodd"/><path fill="#ffffff" d="M 242.835938 117.730469 C 242.800781 120.390625 243.117188 123.496094 242.394531 126.195312 C 241.964844 127.792969 241.980469 129.359375 243.753906 129.664062 C 248.269531 130.449219 251.691406 131.140625 255.648438 132.679688 C 257.789062 133.507812 259.652344 134.445312 261.78125 135.339844 C 263.054688 135.875 264.15625 135.933594 263.730469 134.144531 C 263.292969 132.308594 262.574219 130.191406 261.667969 128.34375 C 260.691406 126.355469 258.753906 124.859375 256.738281 123.628906 C 251.503906 120.421875 250.917969 119.859375 246.453125 115.578125 C 244.703125 113.890625 242.871094 114.542969 242.835938 117.730469 " fill-opacity="1" fill-rule="evenodd"/><path fill="#ffffff" d="M 255.941406 104.644531 L 258.898438 115.90625 C 259.21875 117.117188 260.847656 118.046875 262.347656 115.996094 C 263.710938 114.125 265.546875 112.71875 268.515625 112.34375 C 270.96875 112.03125 271.160156 110.78125 270.492188 108.769531 C 267.65625 100.246094 261.765625 100.984375 257.53125 101.9375 C 256.246094 102.222656 255.617188 103.402344 255.941406 104.644531 " fill-opacity="1" fill-rule="evenodd"/><path fill="#ffffff" d="M 254.253906 113.9375 C 252.988281 108.207031 251.121094 99.398438 249.699219 97.164062 C 245.589844 90.703125 238.789062 91.074219 233.660156 95.9375 C 228.390625 100.941406 226.738281 103.765625 228.753906 113.367188 C 230.515625 121.78125 225.898438 124.132812 224.644531 130.597656 C 224.453125 131.582031 225.191406 132.863281 226.199219 132.707031 C 242.136719 130.222656 238.003906 122.933594 239.640625 115.230469 C 240.855469 109.507812 244.777344 108.691406 249.074219 112.261719 C 250.402344 113.367188 251.660156 114.6875 252.996094 115.851562 C 255.1875 117.753906 254.46875 114.914062 254.253906 113.9375 " fill-opacity="1" fill-rule="evenodd"/><path fill="#ffffff" d="M 196.34375 78.878906 C 205.511719 87.441406 240.761719 85.550781 248.644531 78.179688 C 235.738281 64.769531 207.121094 71.507812 196.34375 78.878906 " fill-opacity="1" fill-rule="evenodd"/><path fill="#ffffff" d="M 250.328125 73.867188 C 254.332031 76.136719 257.429688 77.847656 260.425781 79.984375 C 263.292969 82.03125 264.734375 81.414062 264.757812 77.996094 C 264.808594 71.707031 265.078125 66.65625 266.773438 59.261719 C 267.480469 56.175781 264.585938 56.183594 262.445312 57.074219 C 257.347656 59.195312 252.105469 63.003906 248.441406 66.382812 C 245.503906 69.085938 247.386719 72.203125 250.328125 73.867188 " fill-opacity="1" fill-rule="evenodd"/><g clip-path="url(#97bf5dcd5e)"><path fill="#ffffff" d="M 210.769531 61.78125 C 216.136719 62.378906 230.140625 56.109375 233.738281 53.613281 C 238.441406 50.347656 247.789062 43.066406 249.683594 37.496094 C 241.753906 37.863281 237.082031 39.804688 230.554688 43.796875 C 225.046875 47.164062 212.363281 56.859375 210.769531 61.78125 " fill-opacity="1" fill-rule="evenodd"/></g><path fill="#ffffff" d="M 271.804688 120.636719 C 271.203125 116.964844 266.488281 116.085938 265.554688 120.117188 C 264.648438 124.035156 266.554688 129.90625 267.734375 134.253906 C 267.90625 134.886719 268.410156 135.203125 268.75 134.570312 C 270.65625 131 272.53125 125.082031 271.804688 120.636719 " fill-opacity="1" fill-rule="evenodd"/><g clip-path="url(#c0f064435e)"><path fill="#ffffff" d="M 245.253906 157.945312 C 238.113281 155.230469 230.359375 157.082031 226.015625 158.660156 C 224.605469 159.171875 222.625 158.386719 223.933594 156.707031 C 227.289062 152.398438 239.480469 152.667969 245.039062 154.570312 C 255.621094 158.195312 261.773438 166.316406 265.710938 159.96875 C 267.886719 156.460938 266.628906 150.242188 265.992188 146.082031 C 264.433594 135.945312 244.15625 130.632812 234.390625 134.230469 C 232.527344 134.917969 230.03125 135.195312 227.789062 135.628906 C 224.527344 136.269531 222.238281 138.289062 220.683594 141.164062 C 219.722656 142.9375 218.992188 144.445312 216.453125 146.8125 C 210.871094 152.015625 203.347656 151.882812 202.464844 163.589844 C 200.894531 184.519531 209.554688 191.746094 216.167969 196.695312 C 217.777344 197.90625 222.785156 201.332031 223.261719 202.753906 C 223.863281 204.550781 222.320312 206.25 219.386719 204.714844 C 218.648438 204.328125 217.878906 203.796875 217.082031 203.210938 C 215.746094 202.222656 214.617188 202.625 214.023438 204.132812 C 210.015625 214.316406 222 222.242188 210.125 234.25 C 207.339844 237.070312 201.941406 241.25 200.183594 245.828125 C 197.976562 251.582031 198.125 258.265625 201.320312 263.011719 C 208.011719 250.816406 210.726562 252.996094 214.875 248.742188 C 218.03125 245.5 220.21875 234.851562 224 229.394531 C 228.210938 223.320312 226.390625 221.625 227.632812 215.207031 C 228.542969 210.523438 230.347656 205.699219 233.210938 202.234375 C 235.644531 199.296875 239.007812 197.460938 242.617188 196.285156 C 246.351562 195.074219 246.113281 192.910156 246.746094 189.800781 C 247.46875 186.261719 248.8125 183.453125 250.527344 181.835938 C 254.699219 177.902344 259.925781 182.785156 256.078125 186.375 C 252.183594 190.007812 248.757812 195.746094 255.53125 198.492188 C 260.785156 200.621094 268.488281 201.019531 272.53125 198.699219 C 275.601562 196.933594 274.820312 192.976562 273.867188 190.316406 C 272.820312 187.410156 271.441406 183.777344 270.644531 180.425781 C 269.328125 174.875 268.410156 172.90625 266.816406 169.816406 C 265.335938 166.949219 263.105469 166.527344 260.28125 165.832031 C 255.640625 164.699219 252.578125 160.730469 245.253906 157.945312 Z M 256.125 167.515625 C 252.589844 170.167969 249.183594 165.457031 244.273438 163.441406 C 239.792969 161.609375 232.671875 162.261719 228.992188 165.429688 C 235.808594 178.183594 244.066406 172.128906 249.613281 170.597656 C 250.84375 170.257812 252.070312 170.859375 251.054688 172.320312 C 247.386719 177.617188 231.042969 179.558594 226.292969 166.554688 C 224.757812 167.117188 223.777344 167.460938 222.730469 167.15625 C 221.476562 166.785156 221.136719 165.628906 222.03125 164.882812 C 225.898438 161.65625 239.585938 156.285156 248.914062 162.015625 C 250.914062 163.246094 255.332031 165.917969 256.125 167.515625 " fill-opacity="1" fill-rule="evenodd"/></g></svg>