<svg xmlns="http://www.w3.org/2000/svg" viewBox="0 0 280 80" fill="none">
  <defs>
    <linearGradient id="logoGradientFull" x1="0%" y1="0%" x2="100%" y2="100%">
      <stop offset="0%" stop-color="#F59E0B"/>
      <stop offset="100%" stop-color="#EA580C"/>
    </linearGradient>
  </defs>
  
  <!-- Icon: U-shape with sync curve and arrow -->
  <g transform="translate(5, 8) scale(0.53)">
    <path d="M80.2062 93.1219C75.289 97.4702 68.4351 100 60 100C40 100 25 90 25 70V20" stroke="url(#logoGradientFull)" stroke-width="12" stroke-linecap="round" fill="none"/>
    <path d="M68 25H54C51.7909 25 50 26.7909 50 29V43C50 45.2091 51.7909 47 54 47H68C70.2091 47 72 45.2091 72 43V29C72 26.7909 70.2091 25 68 25Z" fill="url(#logoGradientFull)"/>
    <path d="M94 25H80C77.7909 25 76 26.7909 76 29V43C76 45.2091 77.7909 47 80 47H94C96.2091 47 98 45.2091 98 43V29C98 26.7909 96.2091 25 94 25Z" fill="url(#logoGradientFull)"/>
    <path d="M68 51H54C51.7909 51 50 52.7909 50 55V69C50 71.2091 51.7909 73 54 73H68C70.2091 73 72 71.2091 72 69V55C72 52.7909 70.2091 51 68 51Z" fill="url(#logoGradientFull)"/>
    <path d="M94 51H80C77.7909 51 76 52.7909 76 55V69C76 71.2091 77.7909 73 80 73H94C96.2091 73 98 71.2091 98 69V55C98 52.7909 96.2091 51 94 51Z" fill="url(#logoGradientFull)"/>
    <path d="M85.0209 75.7436L68.1995 87.3255C66.4489 88.5309 67.5382 91.2736 69.6388 90.9494L80.3089 89.3028C81.0019 89.1958 81.7002 89.4596 82.1495 89.9979L88.0819 97.1067C89.4024 98.689 91.9635 97.4815 91.5831 95.4561L88.1207 77.0217C87.8537 75.6 86.2123 74.9232 85.0209 75.7436Z" fill="url(#logoGradientFull)"/>
  </g>
  
  <!-- UniSync Text -->
  <text x="75" y="52" font-family="system-ui, -apple-system, 'Segoe UI', Roboto, sans-serif" font-size="36" font-weight="700" fill="#1C1917">
    <tspan>Uni</tspan><tspan fill="url(#logoGradientFull)">Sync</tspan>
  </text>
</svg>
