<svg xmlns="http://www.w3.org/2000/svg" xmlns:xlink="http://www.w3.org/1999/xlink" width="500" zoomAndPan="magnify" viewBox="0 0 375 374.999991" height="500" preserveAspectRatio="xMidYMid meet" version="1.0"><defs><g/><clipPath id="6495f8d55a"><path d="M 182 230 L 228 230 L 228 280.210938 L 182 280.210938 Z M 182 230 " clip-rule="nonzero"/></clipPath><clipPath id="d30d9d3c01"><path d="M 204 88.207031 L 274.464844 88.207031 L 274.464844 209.789062 L 204 209.789062 Z M 204 88.207031 " clip-rule="nonzero"/></clipPath><clipPath id="5483adc13a"><rect x="0" width="310" y="0" height="71"/></clipPath></defs><path fill="#ffffff" d="M 250.523438 153.558594 C 240.613281 151.800781 233.777344 160.308594 233.132812 170.402344 C 232.769531 176.046875 232.535156 176.019531 229.84375 179.5625 C 226.40625 184.089844 225.050781 189.960938 228.496094 193.730469 C 230 195.382812 231.144531 196.183594 231.425781 193.238281 C 231.921875 188.089844 229.058594 185.449219 233.246094 181.695312 C 235.816406 179.390625 242.445312 177.523438 244.054688 175.125 C 246.335938 171.71875 245.507812 166.6875 249.199219 162.855469 C 253.640625 158.246094 260.984375 162.488281 263.683594 163.238281 C 264.875 156.59375 256.03125 154.53125 250.523438 153.558594 " fill-opacity="1" fill-rule="evenodd"/><path fill="#ffffff" d="M 253.351562 165.621094 C 251.894531 165.277344 250.65625 165.429688 249.832031 167.246094 C 249.164062 168.722656 248.613281 170.386719 248.15625 172.234375 C 247.753906 173.863281 247.804688 174.984375 249.898438 175.046875 C 252.867188 175.136719 254.386719 175.472656 256.679688 175.820312 C 258.195312 176.050781 259.289062 176.074219 260.171875 174.699219 C 261.320312 172.910156 262.839844 170.316406 261.589844 169.054688 C 260.082031 167.535156 255.589844 166.140625 253.351562 165.621094 " fill-opacity="1" fill-rule="evenodd"/><path fill="#ffffff" d="M 258.945312 180.773438 C 256.425781 177.253906 248.007812 178.339844 245.910156 180.925781 C 239.851562 188.40625 246.761719 194.304688 251.144531 202.984375 C 252.738281 206.140625 253.683594 209.445312 254.273438 212.882812 C 254.597656 214.777344 255.300781 213.695312 255.609375 212.667969 C 259.761719 198.933594 246.640625 192.667969 247.921875 185.601562 C 248.242188 183.832031 250.453125 184.214844 250.484375 185.519531 C 250.507812 186.503906 250.601562 188.273438 253.492188 192.308594 C 255.84375 195.585938 255.96875 195.945312 257.597656 199.652344 C 257.890625 200.324219 258.597656 200.4375 259.226562 200.179688 C 265.253906 197.730469 263.953125 190.335938 261.078125 184.660156 C 260.308594 183.152344 259.703125 181.839844 258.945312 180.773438 " fill-opacity="1" fill-rule="evenodd"/><path fill="#ffffff" d="M 246.648438 229.488281 C 250.617188 220.507812 252.34375 211.304688 247.074219 202.210938 C 245.792969 200 244.207031 197.285156 242.320312 193.757812 C 239.445312 188.371094 240.050781 185.230469 241.441406 182.378906 C 242.230469 180.761719 241.621094 180.316406 240.039062 180.785156 C 236.152344 181.9375 234.109375 182.953125 234.039062 187.042969 C 234 189.4375 234.5625 192.78125 234.226562 195.207031 C 233.710938 198.902344 229.964844 199.699219 227.640625 197.617188 C 226.851562 196.90625 226.121094 196.0625 225.550781 195.265625 C 224.652344 194.007812 224.160156 193.964844 223.222656 195.191406 L 222.152344 196.597656 C 221.121094 197.941406 221.332031 200.242188 222.046875 201.691406 C 223.480469 204.59375 224.328125 206.335938 225.527344 211.179688 C 226.667969 215.773438 226.453125 219.34375 227.003906 223.109375 C 227.890625 229.195312 230.816406 234.488281 230.953125 241.0625 C 231.050781 245.757812 229.308594 250.261719 227.449219 254.507812 C 226.972656 255.585938 228.027344 254.878906 228.347656 254.660156 C 234.234375 250.746094 239.957031 242.570312 241.972656 236.203125 C 245.039062 226.53125 235.953125 220.320312 234.632812 214.984375 C 233.871094 211.917969 237.054688 210.699219 238.230469 214.074219 C 238.714844 215.472656 239.398438 217.480469 241.320312 220.597656 C 242.863281 223.109375 244.5625 225.914062 245.304688 229.542969 C 245.640625 231.1875 246.140625 230.640625 246.648438 229.488281 " fill-opacity="1" fill-rule="evenodd"/><path fill="#ffffff" d="M 260.042969 216.742188 C 249.246094 219.371094 253.394531 224.804688 246.597656 236.503906 C 244.542969 240.046875 242.597656 244.148438 240.203125 247.265625 C 237.832031 250.355469 235.015625 252.460938 231.964844 255.136719 C 224.195312 261.964844 227.109375 268.085938 230.265625 270.214844 C 230.941406 270.671875 231.066406 270.351562 231.34375 269.714844 C 237.976562 254.472656 239.714844 261.9375 250.296875 256.023438 C 253.871094 254.027344 253.402344 252.707031 253.277344 247.664062 C 253.058594 239.195312 257.730469 236.292969 261.289062 232.277344 C 266.273438 226.660156 267.179688 225.328125 265.367188 218.417969 C 264.789062 216.21875 261.832031 216.304688 260.042969 216.742188 " fill-opacity="1" fill-rule="evenodd"/><path fill="#ffffff" d="M 258.820312 212.992188 C 258.636719 214.242188 259.007812 214.371094 260.203125 213.984375 C 269.101562 211.105469 268.246094 205.066406 265.941406 201.554688 C 265.152344 200.347656 263.800781 200.179688 262.695312 201.105469 C 262.0625 201.636719 261.46875 202.066406 260.84375 202.621094 C 259.761719 203.574219 258.964844 205.144531 259.113281 206.589844 C 259.320312 208.511719 259.117188 211.003906 258.820312 212.992188 " fill-opacity="1" fill-rule="evenodd"/><g clip-path="url(#6495f8d55a)"><path fill="#ffffff" d="M 226.367188 247.347656 C 228.21875 242.589844 228.277344 237.445312 225.660156 231.515625 C 224.679688 229.28125 224.085938 230.066406 223.03125 231.792969 C 217.898438 240.195312 210.769531 245.394531 194.214844 250.316406 C 181.949219 253.964844 180.488281 266.929688 185.144531 274.839844 C 186.597656 277.304688 187.617188 278.207031 189.085938 279.214844 C 190.621094 280.273438 191.417969 280.96875 191.507812 278.726562 C 191.78125 271.96875 194.328125 268.214844 198.980469 265.253906 C 209.847656 258.335938 220.433594 262.574219 226.367188 247.347656 " fill-opacity="1" fill-rule="evenodd"/></g><path fill="#ffffff" d="M 212.144531 238.878906 C 215.382812 236.535156 218.285156 233.5625 221.402344 228.480469 C 225.855469 221.21875 223.414062 210.222656 219.761719 203.386719 C 218.234375 200.519531 215.023438 201.890625 213.339844 203.859375 C 210.910156 206.699219 209.667969 208.753906 209.132812 210.398438 C 208.269531 213.042969 206.113281 214.148438 204.402344 211.617188 C 203.160156 209.773438 202.347656 207.496094 201.78125 205.445312 C 200.792969 201.875 199.378906 202.945312 198.421875 205.769531 C 197.9375 207.199219 197.511719 208.765625 196.933594 210.417969 C 195.371094 214.878906 196.851562 218.0625 195.847656 222.722656 C 194.046875 231.050781 187.636719 231.410156 181.726562 235.167969 C 171.050781 241.96875 177.777344 251.019531 161.292969 253.941406 C 159.414062 254.277344 157.636719 254.570312 155.660156 254.871094 C 153.523438 255.355469 149.390625 256.324219 154.082031 258.167969 C 156.898438 259.277344 159.734375 260.375 163.953125 260.578125 C 183.261719 261.496094 181.855469 252.851562 188.804688 249.269531 C 196.625 245.242188 201.789062 246.359375 212.144531 238.878906 " fill-opacity="1" fill-rule="evenodd"/><path fill="#ffffff" d="M 208.015625 184.527344 C 221.648438 173.894531 214.566406 168.414062 213.484375 160.726562 C 213.066406 157.769531 213.765625 155.417969 214.550781 153.167969 C 215.304688 151.007812 215.3125 149.140625 213.660156 147.492188 C 211.648438 145.484375 209.378906 143.761719 207.335938 141.199219 C 207.136719 140.949219 206.941406 140.695312 206.746094 140.429688 C 205.988281 139.386719 205.371094 139.035156 204.816406 139.09375 C 203.933594 139.1875 203.210938 140.324219 202.316406 141.335938 C 201.082031 142.726562 199.578125 143.597656 196.664062 145.535156 C 194.292969 147.113281 191.664062 148.738281 190.523438 150.550781 C 185.324219 158.792969 191.027344 166.699219 191.496094 173.683594 C 191.675781 177.835938 190.210938 180.992188 188.550781 184.113281 C 187.515625 186.066406 186.398438 188 185.8125 190.296875 C 184.171875 196.730469 188.964844 201.464844 188.652344 208.269531 C 188.546875 210.527344 188.078125 213.195312 187.429688 216.390625 C 186.976562 218.601562 188.058594 218.804688 189.714844 217.21875 C 193.164062 213.925781 194.410156 208.0625 196.414062 202.890625 C 197.386719 200.394531 198.636719 198.667969 199.621094 196.351562 C 201.9375 190.878906 203.203125 188.285156 208.015625 184.527344 " fill-opacity="1" fill-rule="evenodd"/><path fill="#ffffff" d="M 200.625 131.015625 C 203.785156 128.121094 203.132812 123.945312 203.617188 117.546875 C 204.804688 101.621094 220.214844 104.25 205.84375 78.628906 C 204.703125 76.59375 203.753906 75.085938 203.019531 73.535156 C 201.710938 70.769531 201.4375 70.414062 198.132812 70.914062 C 195.628906 71.292969 193.011719 71.414062 193.023438 74.007812 L 193.042969 78.597656 C 193.050781 81.109375 193.515625 81.125 195.226562 82.515625 C 198.257812 84.972656 196.371094 88.449219 193.476562 90.285156 C 191.273438 91.679688 190.71875 91.675781 190.4375 94.703125 C 190.074219 98.691406 189.117188 101.753906 188.320312 104.34375 C 186.386719 110.644531 187.847656 113.972656 191.738281 118.941406 C 194.015625 121.855469 197.175781 125.597656 198.019531 129.417969 C 198.371094 130.996094 198.28125 133.167969 200.625 131.015625 " fill-opacity="1" fill-rule="evenodd"/><path fill="#ffffff" d="M 193.949219 133.394531 C 195.015625 128.894531 192.78125 123.71875 189.625 120.53125 C 188.863281 119.761719 187.804688 119.582031 187.773438 120.941406 C 187.578125 128.316406 187.453125 133.554688 183.964844 139.472656 C 181.621094 143.445312 175.898438 147.820312 173.710938 152.148438 C 173.398438 152.773438 173.601562 153.128906 174.277344 152.84375 C 181.003906 149.996094 181.957031 151.574219 190.355469 145.6875 C 192.527344 144.164062 194.292969 143.25 195.710938 142.414062 C 197.109375 141.589844 202.832031 136.574219 198.371094 137.09375 C 192.351562 137.792969 193.230469 136.441406 193.949219 133.394531 " fill-opacity="1" fill-rule="evenodd"/><path fill="#ffffff" d="M 179.082031 141.058594 C 186.984375 133.101562 184.695312 121.644531 184.074219 113.609375 C 183.636719 107.925781 186.453125 102.542969 187.035156 97.855469 C 187.472656 94.359375 185.234375 93.984375 182.339844 94.390625 C 177.21875 95.105469 172.179688 96.230469 167.308594 97.90625 C 164.660156 98.820312 164.570312 100.238281 165.34375 102.824219 C 166.910156 108.039062 167.113281 113.347656 164.835938 117.738281 C 162.382812 122.46875 158.320312 124.757812 157.496094 130.429688 C 157.273438 131.949219 157.980469 132.378906 158.601562 131.628906 C 162.304688 127.121094 166.960938 123.65625 170.5 119.050781 C 174.625 113.691406 173.660156 111.316406 174.078125 109.441406 C 174.445312 107.769531 176.289062 107.328125 177.042969 108.703125 C 178.675781 111.675781 176.914062 118.039062 173.023438 122.113281 C 160.761719 134.960938 156.21875 134.320312 159.507812 149.808594 C 160.410156 154.058594 162.402344 158.703125 164.964844 161.398438 C 166.730469 163.253906 167.503906 163.816406 168.15625 160.953125 C 168.972656 157.371094 167.664062 152.558594 179.082031 141.058594 " fill-opacity="1" fill-rule="evenodd"/><path fill="#ffffff" d="M 159.152344 120.546875 C 162.097656 116.050781 163.660156 113.9375 162.382812 106.390625 C 162.148438 105.007812 161.820312 103.699219 161.371094 102.679688 C 160.304688 100.273438 159.492188 100.578125 157.4375 101.101562 L 154.898438 101.988281 C 153.699219 102.414062 153.109375 103.117188 153.28125 104.417969 C 154.667969 114.976562 158.042969 121.722656 146.039062 131.855469 C 143.046875 134.378906 125.160156 140.742188 128.320312 153.292969 C 129.460938 157.8125 133.589844 163.726562 137.890625 166.1875 C 139.417969 167.0625 140.613281 166.613281 140.652344 164.808594 C 140.8125 156.714844 139.886719 154.300781 138.945312 152.378906 C 137.210938 148.835938 140.34375 148.378906 141.625 150.75 C 142.257812 151.917969 142.585938 153.355469 142.878906 154.769531 C 144.738281 163.679688 143.15625 168.007812 141.335938 176.601562 C 139.398438 185.757812 143.085938 197.074219 149.667969 199.925781 C 151.132812 200.5625 151.550781 199.671875 151.175781 198.351562 C 149.65625 193.007812 146.554688 188.8125 154.007812 175.902344 C 160.382812 164.855469 156.757812 158.445312 155.03125 148.097656 C 154.035156 142.152344 153.214844 131.824219 155.394531 126.722656 C 156.289062 124.628906 157.617188 122.890625 159.152344 120.546875 " fill-opacity="1" fill-rule="evenodd"/><path fill="#ffffff" d="M 140.75 131.476562 C 152.589844 126.457031 152.410156 117.054688 151.003906 107.859375 C 150.847656 106.835938 150.414062 105.582031 149.527344 105.140625 C 148.546875 104.648438 147.0625 105.039062 145.984375 105.433594 C 140.542969 107.433594 131.769531 111.09375 126.714844 113.5 C 124.21875 114.6875 124.964844 116.78125 126.214844 118.859375 C 129.308594 124.015625 129.789062 130.253906 130.007812 135.535156 C 130.082031 137.390625 130.839844 137.28125 132.070312 136.054688 C 133.621094 134.515625 135.375 132.15625 136.808594 129.570312 C 138.652344 126.238281 139.28125 123.71875 139.734375 121.296875 C 140.152344 119.054688 142.28125 120.078125 142.453125 121.480469 C 142.820312 124.492188 140.839844 128.132812 139.570312 130.65625 C 138.890625 132 139.53125 131.996094 140.75 131.476562 " fill-opacity="1" fill-rule="evenodd"/><path fill="#ffffff" d="M 125.859375 110.546875 C 132.863281 107.984375 144.476562 102.5625 148.109375 101.292969 C 151.675781 100.046875 155.480469 98.859375 158.871094 97.605469 C 159.941406 97.210938 162.96875 95.011719 159.871094 94.546875 C 153.097656 93.527344 142.890625 91.617188 136.605469 87.746094 C 134.339844 86.34375 133.816406 84.996094 136.160156 83.253906 C 142 78.921875 148.988281 76.289062 155.722656 74.921875 C 167.25 72.574219 176.894531 73.6875 187.296875 78.085938 C 188.828125 78.734375 190.027344 79.023438 189.960938 77.019531 C 189.925781 76.042969 189.886719 75.023438 189.800781 73.753906 C 189.671875 71.699219 188.09375 71.464844 186.289062 71.292969 C 175.964844 70.3125 168.457031 69.269531 162.113281 66.371094 C 157.757812 64.378906 158.511719 61.238281 161.5625 59.398438 C 167.746094 55.667969 181.078125 52.339844 188.355469 51.601562 C 198.78125 50.539062 214.457031 50.808594 223.285156 56.21875 C 225.777344 57.75 225.117188 59.558594 223.570312 60.695312 C 222.058594 61.804688 220.464844 62.738281 218.394531 63.664062 C 216.148438 64.667969 216.382812 67.199219 217.546875 68.964844 C 219.851562 72.445312 223.554688 75.363281 226.15625 81.199219 C 234.5625 71.640625 222.136719 64.191406 233.109375 53.394531 C 235.859375 50.691406 239.972656 46.527344 246.121094 48.246094 C 251.082031 49.625 252.355469 51.578125 254.199219 54.804688 C 255.070312 56.324219 256.25 56.742188 257.941406 56.363281 C 260.132812 55.863281 261.164062 55.691406 263.929688 55.871094 C 265.472656 55.972656 266.066406 55.183594 266.078125 53.746094 C 266.128906 49.039062 264.460938 45.886719 260.511719 43.316406 C 257.386719 41.289062 255.527344 41.304688 252.042969 42.335938 C 244.105469 44.6875 227.179688 49.71875 213.949219 46.273438 C 195.519531 41.472656 193.917969 38.089844 204.007812 33.675781 C 213.699219 29.4375 225.046875 26.992188 235.609375 27.398438 C 242.324219 27.660156 245.042969 26.742188 250.117188 22.523438 C 252.828125 20.265625 255.480469 18.828125 260.332031 16.296875 C 262.289062 15.273438 262.554688 13.953125 261.441406 12.050781 C 260.003906 9.597656 257.3125 7.570312 254.578125 6.417969 C 252.566406 5.566406 251.078125 6.007812 249.574219 7.5 C 247.277344 9.777344 244.722656 12.222656 242.015625 14.460938 C 235.179688 20.082031 224.175781 25.019531 215.53125 25.515625 C 212.796875 25.671875 211.359375 24.617188 212.332031 21.796875 C 213.234375 19.167969 215.460938 16.953125 216.921875 15.308594 C 217.410156 14.761719 219.269531 13.097656 221.089844 11.488281 C 222.015625 10.667969 224.175781 8.308594 221.054688 9.050781 L 212.871094 10.996094 C 210.558594 11.542969 209.152344 12.777344 208.484375 15.015625 C 203.992188 30.167969 190.472656 43.285156 170.824219 48.023438 C 168.074219 48.683594 167.1875 48.40625 167.664062 45.160156 C 168.988281 36.148438 171.390625 29.417969 174.425781 23.753906 C 175.605469 21.546875 173.417969 21.253906 171.8125 21.675781 C 170.160156 22.109375 168.46875 22.703125 166.988281 23.332031 C 164.628906 24.34375 163.625 26.25 163.640625 28.761719 C 163.742188 45.015625 157.378906 60.882812 143.335938 69.695312 C 141.007812 71.152344 138.792969 71.257812 138.398438 68.152344 C 136.832031 55.757812 139.996094 47.3125 140.839844 40.929688 C 141.171875 38.417969 140.066406 37.640625 137.425781 38.324219 L 128.675781 41.292969 C 126.417969 42.0625 126.113281 43.199219 126.714844 45.261719 C 130.113281 56.90625 130.882812 79.398438 125.539062 89.117188 C 124.40625 91.179688 123.414062 91.476562 121.460938 90.074219 C 119.734375 88.839844 118.757812 89.195312 117.710938 91.007812 C 116.03125 93.90625 114.117188 98.007812 114.3125 101.457031 C 114.492188 104.675781 116.515625 107.859375 118.480469 109.933594 C 120.476562 112.03125 123.453125 111.425781 125.859375 110.546875 " fill-opacity="1" fill-rule="evenodd"/><path fill="#ffffff" d="M 122.429688 118.542969 C 118.929688 114.667969 115.492188 111.808594 113.464844 107.820312 C 112.78125 106.472656 111.207031 105.882812 109.425781 106.710938 C 107.148438 107.765625 104.683594 108.914062 103.050781 111.152344 C 100.523438 114.617188 101.441406 119.082031 106.15625 119.644531 C 108.636719 119.9375 111.59375 119.652344 113.773438 119.566406 C 115.332031 119.503906 116.613281 120.539062 115.1875 121.742188 C 113.28125 123.355469 109.597656 122.074219 107.730469 125.929688 C 105.980469 129.535156 106.902344 131.433594 108.027344 133.25 C 108.96875 134.773438 109.226562 135.226562 110.785156 134.261719 C 113.085938 132.84375 115.140625 131.433594 116.425781 130.867188 C 119.015625 129.722656 120.007812 131.722656 118.457031 133.019531 C 116.871094 134.34375 113.886719 135.125 108.722656 138.984375 C 106.734375 140.46875 103.058594 143.71875 102.09375 147.164062 C 101.308594 149.964844 102.28125 150.613281 104.953125 149.421875 C 107.644531 148.226562 111.679688 146.285156 115.269531 144.9375 C 122.925781 142.070312 127.695312 139.429688 126.589844 130.402344 C 126.03125 125.839844 124.824219 121.1875 122.429688 118.542969 " fill-opacity="1" fill-rule="evenodd"/><path fill="#ffffff" d="M 142.171875 66.652344 C 163.117188 52.871094 161.574219 27.875 158.75 15.726562 C 158.5 14.65625 158.027344 15.042969 157.328125 15.625 C 145.898438 25.175781 140.445312 54.917969 140.808594 66.125 C 140.835938 66.96875 141.457031 67.121094 142.171875 66.652344 " fill-opacity="1" fill-rule="evenodd"/><path fill="#ffffff" d="M 206.335938 0.992188 C 187.070312 6.03125 172.601562 25.179688 170.847656 44.867188 C 191.792969 39.128906 206.761719 24.535156 206.335938 0.992188 " fill-opacity="1" fill-rule="evenodd"/><path fill="#ffffff" d="M 191.890625 54.035156 C 187.589844 54.246094 172.101562 56.875 166.335938 60.550781 C 164.367188 61.808594 164.128906 63.257812 166.453125 64.242188 C 172.675781 66.871094 187.660156 67.570312 191.722656 67.492188 C 202.351562 67.285156 213.445312 64.660156 218.726562 58.96875 C 214.804688 54.894531 199.648438 53.640625 191.890625 54.035156 " fill-opacity="1" fill-rule="evenodd"/><path fill="#ffffff" d="M 190.222656 82.917969 C 176.398438 74.269531 150.417969 74.355469 139.195312 85.4375 C 150.589844 93.203125 176.859375 95.429688 190.089844 87.441406 C 193.183594 85.574219 193.140625 84.742188 190.222656 82.917969 " fill-opacity="1" fill-rule="evenodd"/><path fill="#ffffff" d="M 123.53125 86.773438 C 128.089844 75.339844 129.179688 49.835938 118.894531 38.421875 C 113.492188 47.363281 116.15625 81.148438 123.53125 86.773438 " fill-opacity="1" fill-rule="evenodd"/><path fill="#ffffff" d="M 205.230469 71.660156 C 209.203125 82.527344 217.65625 85.664062 213.457031 102.195312 C 218.355469 100.933594 232.382812 89.800781 218.625 75.152344 C 216.652344 73.050781 215.417969 71.242188 214 68.441406 C 213.300781 67.054688 211.441406 66.675781 210.027344 67.125 L 206.6875 68.171875 C 204.839844 68.757812 204.574219 69.871094 205.230469 71.660156 " fill-opacity="1" fill-rule="evenodd"/><path fill="#ffffff" d="M 244.972656 74.382812 C 244.941406 76.847656 245.234375 79.726562 244.5625 82.226562 C 244.164062 83.710938 244.179688 85.160156 245.824219 85.445312 C 250.011719 86.171875 253.183594 86.816406 256.851562 88.242188 C 258.835938 89.011719 260.5625 89.878906 262.539062 90.707031 C 263.71875 91.207031 264.738281 91.257812 264.34375 89.601562 C 263.9375 87.894531 263.273438 85.933594 262.433594 84.222656 C 261.527344 82.378906 259.730469 80.992188 257.863281 79.851562 C 253.007812 76.875 252.464844 76.355469 248.328125 72.386719 C 246.703125 70.824219 245.007812 71.425781 244.972656 74.382812 " fill-opacity="1" fill-rule="evenodd"/><path fill="#ffffff" d="M 257.125 62.25 L 259.867188 72.691406 C 260.160156 73.8125 261.671875 74.675781 263.0625 72.773438 C 264.328125 71.039062 266.027344 69.738281 268.78125 69.386719 C 271.054688 69.097656 271.234375 67.941406 270.613281 66.074219 C 267.984375 58.171875 262.523438 58.855469 258.597656 59.738281 C 257.402344 60.003906 256.824219 61.097656 257.125 62.25 " fill-opacity="1" fill-rule="evenodd"/><path fill="#ffffff" d="M 255.558594 70.863281 C 254.386719 65.554688 252.65625 57.386719 251.335938 55.316406 C 247.527344 49.324219 241.222656 49.667969 236.464844 54.179688 C 231.582031 58.816406 230.050781 61.4375 231.917969 70.335938 C 233.550781 78.136719 229.269531 80.316406 228.105469 86.308594 C 227.929688 87.222656 228.617188 88.410156 229.550781 88.265625 C 244.324219 85.960938 240.492188 79.203125 242.011719 72.066406 C 243.136719 66.761719 246.773438 66.003906 250.753906 69.3125 C 251.988281 70.335938 253.15625 71.5625 254.394531 72.640625 C 256.421875 74.402344 255.757812 71.769531 255.558594 70.863281 " fill-opacity="1" fill-rule="evenodd"/><path fill="#ffffff" d="M 201.871094 38.359375 C 210.371094 46.300781 243.050781 44.546875 250.359375 37.714844 C 238.390625 25.28125 211.863281 31.527344 201.871094 38.359375 " fill-opacity="1" fill-rule="evenodd"/><path fill="#ffffff" d="M 251.917969 33.71875 C 255.632812 35.820312 258.503906 37.40625 261.28125 39.386719 C 263.9375 41.285156 265.277344 40.714844 265.296875 37.542969 C 265.34375 31.714844 265.597656 27.03125 267.167969 20.175781 C 267.820312 17.316406 265.140625 17.320312 263.152344 18.148438 C 258.425781 20.113281 253.566406 23.644531 250.167969 26.777344 C 247.445312 29.285156 249.195312 32.175781 251.917969 33.71875 " fill-opacity="1" fill-rule="evenodd"/><path fill="#ffffff" d="M 215.242188 22.511719 C 220.21875 23.0625 233.203125 17.253906 236.539062 14.9375 C 240.898438 11.910156 249.566406 5.164062 251.324219 -0.00390625 C 243.96875 0.339844 239.640625 2.136719 233.585938 5.839844 C 228.480469 8.957031 216.722656 17.949219 215.242188 22.511719 " fill-opacity="1" fill-rule="evenodd"/><path fill="#ffffff" d="M 271.828125 77.074219 C 271.273438 73.671875 266.902344 72.855469 266.035156 76.59375 C 265.195312 80.226562 266.964844 85.671875 268.058594 89.699219 C 268.214844 90.285156 268.683594 90.582031 268.996094 89.996094 C 270.765625 86.683594 272.503906 81.199219 271.828125 77.074219 " fill-opacity="1" fill-rule="evenodd"/><g clip-path="url(#d30d9d3c01)"><path fill="#ffffff" d="M 247.214844 111.664062 C 240.59375 109.148438 233.40625 110.863281 229.378906 112.328125 C 228.070312 112.804688 226.234375 112.074219 227.449219 110.515625 C 230.558594 106.523438 241.863281 106.773438 247.015625 108.535156 C 256.828125 111.898438 262.527344 119.425781 266.183594 113.539062 C 268.195312 110.289062 267.03125 104.523438 266.441406 100.667969 C 264.996094 91.265625 246.199219 86.34375 237.144531 89.679688 C 235.414062 90.316406 233.101562 90.570312 231.023438 90.976562 C 228 91.570312 225.878906 93.441406 224.433594 96.105469 C 223.542969 97.75 222.867188 99.148438 220.515625 101.34375 C 215.339844 106.167969 208.363281 106.042969 207.546875 116.898438 C 206.089844 136.300781 214.117188 143 220.246094 147.589844 C 221.742188 148.710938 226.382812 151.890625 226.824219 153.207031 C 227.382812 154.875 225.953125 156.449219 223.234375 155.027344 C 222.546875 154.664062 221.832031 154.175781 221.097656 153.632812 C 219.859375 152.714844 218.808594 153.089844 218.261719 154.484375 C 214.546875 163.929688 225.65625 171.277344 214.648438 182.40625 C 212.066406 185.019531 207.0625 188.898438 205.433594 193.140625 C 203.382812 198.476562 203.523438 204.671875 206.484375 209.070312 C 212.6875 197.765625 215.203125 199.789062 219.050781 195.84375 C 221.976562 192.835938 224.003906 182.964844 227.511719 177.90625 C 231.414062 172.277344 229.726562 170.703125 230.878906 164.753906 C 231.71875 160.410156 233.394531 155.9375 236.050781 152.726562 C 238.308594 150.003906 241.425781 148.300781 244.769531 147.210938 C 248.230469 146.085938 248.011719 144.082031 248.597656 141.199219 C 249.269531 137.917969 250.511719 135.316406 252.101562 133.816406 C 255.96875 130.167969 260.816406 134.695312 257.25 138.023438 C 253.640625 141.390625 250.464844 146.710938 256.742188 149.253906 C 261.613281 151.230469 268.753906 151.597656 272.503906 149.449219 C 275.347656 147.8125 274.625 144.144531 273.742188 141.675781 C 272.773438 138.984375 271.492188 135.613281 270.753906 132.507812 C 269.535156 127.363281 268.683594 125.535156 267.207031 122.671875 C 265.832031 120.015625 263.765625 119.625 261.148438 118.976562 C 256.84375 117.925781 254.003906 114.246094 247.214844 111.664062 Z M 257.292969 120.539062 C 254.015625 122.996094 250.855469 118.628906 246.308594 116.761719 C 242.152344 115.058594 235.550781 115.667969 232.140625 118.605469 C 238.460938 130.429688 246.113281 124.816406 251.257812 123.394531 C 252.398438 123.082031 253.53125 123.636719 252.59375 124.992188 C 249.195312 129.90625 234.039062 131.703125 229.632812 119.648438 C 228.210938 120.167969 227.304688 120.488281 226.332031 120.203125 C 225.171875 119.863281 224.855469 118.789062 225.6875 118.097656 C 229.269531 115.105469 241.960938 110.125 250.609375 115.4375 C 252.460938 116.582031 256.558594 119.058594 257.292969 120.539062 " fill-opacity="1" fill-rule="evenodd"/></g><g transform="matrix(1, 0, 0, 1, 38, 304)"><g clip-path="url(#5483adc13a)"><g fill="#ffffff" fill-opacity="1"><g transform="translate(2.700784, 59.273488)"><g><path d="M 25.109375 0 C 25.535156 -1.601562 25.878906 -3.566406 26.140625 -5.890625 C 26.410156 -8.222656 26.546875 -10.75 26.546875 -13.46875 L 26.546875 -45.234375 L 12.59375 -45.234375 C 9.96875 -45.234375 7.835938 -45.125 6.203125 -44.90625 C 4.578125 -44.695312 3.070312 -44.351562 1.6875 -43.875 L 4.171875 -56.140625 L 61.359375 -56.140625 L 63.84375 -43.875 C 62.507812 -44.300781 61.007812 -44.632812 59.34375 -44.875 C 57.6875 -45.113281 55.550781 -45.234375 52.9375 -45.234375 L 39.0625 -45.234375 L 39.0625 -13.46875 C 39.0625 -10.75 39.179688 -8.222656 39.421875 -5.890625 C 39.660156 -3.566406 40.019531 -1.601562 40.5 0 Z M 25.109375 0 "/></g></g></g><g fill="#ffffff" fill-opacity="1"><g transform="translate(80.875731, 59.273488)"><g><path d="M 6.5 0 C 6.976562 -1.550781 7.335938 -3.503906 7.578125 -5.859375 C 7.816406 -8.210938 7.9375 -10.75 7.9375 -13.46875 L 7.9375 -42.671875 C 7.9375 -45.398438 7.800781 -47.9375 7.53125 -50.28125 C 7.269531 -52.632812 6.925781 -54.585938 6.5 -56.140625 L 21.890625 -56.140625 C 21.460938 -54.585938 21.113281 -52.632812 20.84375 -50.28125 C 20.582031 -47.9375 20.453125 -45.398438 20.453125 -42.671875 L 20.453125 -13.46875 C 20.453125 -10.75 20.582031 -8.210938 20.84375 -5.859375 C 21.113281 -3.503906 21.460938 -1.550781 21.890625 0 Z M 6.5 0 "/></g></g></g><g fill="#ffffff" fill-opacity="1"><g transform="translate(122.091207, 59.273488)"><g><path d="M 6.5 0 C 6.925781 -1.550781 7.269531 -3.503906 7.53125 -5.859375 C 7.800781 -8.210938 7.9375 -10.75 7.9375 -13.46875 L 7.9375 -42.671875 C 7.9375 -45.398438 7.816406 -47.9375 7.578125 -50.28125 C 7.335938 -52.632812 6.976562 -54.585938 6.5 -56.140625 L 23.265625 -56.140625 L 39.0625 -27.671875 C 40.34375 -25.367188 41.53125 -23.175781 42.625 -21.09375 C 43.71875 -19.007812 44.851562 -16.628906 46.03125 -13.953125 L 46.921875 -13.953125 C 48.097656 -16.578125 49.21875 -18.914062 50.28125 -20.96875 C 51.351562 -23.03125 52.554688 -25.265625 53.890625 -27.671875 L 69.78125 -56.140625 L 86.140625 -56.140625 C 85.660156 -54.585938 85.296875 -52.632812 85.046875 -50.28125 C 84.804688 -47.9375 84.6875 -45.398438 84.6875 -42.671875 L 84.6875 -13.46875 C 84.6875 -10.75 84.820312 -8.210938 85.09375 -5.859375 C 85.363281 -3.503906 85.710938 -1.550781 86.140625 0 L 70.734375 0 C 71.160156 -1.445312 71.507812 -3.410156 71.78125 -5.890625 C 72.050781 -8.378906 72.1875 -11.015625 72.1875 -13.796875 L 72.1875 -40.5 L 71.296875 -40.5 L 48.515625 0 L 43.875 0 L 21.09375 -40.5 L 20.453125 -40.5 L 20.453125 -13.796875 C 20.453125 -11.015625 20.597656 -8.378906 20.890625 -5.890625 C 21.179688 -3.410156 21.515625 -1.445312 21.890625 0 Z M 6.5 0 "/></g></g></g><g fill="#ffffff" fill-opacity="1"><g transform="translate(227.444629, 59.273488)"><g><path d="M 6.5 0 C 7.507812 -3.3125 8.015625 -7.800781 8.015625 -13.46875 L 8.015625 -42.671875 C 8.015625 -45.398438 7.867188 -47.9375 7.578125 -50.28125 C 7.285156 -52.632812 6.925781 -54.585938 6.5 -56.140625 L 61.4375 -56.140625 L 63.4375 -44.03125 C 62.53125 -44.457031 61.179688 -44.800781 59.390625 -45.0625 C 57.597656 -45.332031 55.3125 -45.46875 52.53125 -45.46875 L 20.453125 -45.46875 L 20.453125 -33.359375 L 46.28125 -33.359375 C 49.96875 -33.359375 52.773438 -33.519531 54.703125 -33.84375 L 54.703125 -22.453125 C 52.773438 -22.773438 49.96875 -22.9375 46.28125 -22.9375 L 20.453125 -22.9375 L 20.453125 -10.671875 L 53.09375 -10.671875 C 56.25 -10.671875 58.785156 -10.859375 60.703125 -11.234375 C 62.628906 -11.609375 64.179688 -12.113281 65.359375 -12.75 L 63.046875 0 Z M 6.5 0 "/></g></g></g></g></g></svg>